<svg width="53" height="73" viewBox="0 0 53 73" fill="none" xmlns="http://www.w3.org/2000/svg">
<rect width="53" height="73" rx="6.33552" fill="#292929"/>
<path d="M11.6406 42.2539C11.5521 42.3581 11.4583 42.4531 11.3594 42.5391C11.2604 42.6224 11.1576 42.6953 11.0508 42.7578C10.8685 42.8672 10.6719 42.9479 10.4609 43C10.25 43.0547 10.0286 43.0807 9.79688 43.0781C9.5625 43.0755 9.34635 43.0404 9.14844 42.9727C8.95312 42.9023 8.77734 42.806 8.62109 42.6836C8.46484 42.5638 8.32812 42.4219 8.21094 42.2578C8.09375 42.0938 7.99609 41.9154 7.91797 41.7227C7.83724 41.5326 7.77604 41.3333 7.73438 41.125C7.69531 40.9141 7.67448 40.7018 7.67188 40.4883V39.8281C7.67448 39.6172 7.69271 39.4076 7.72656 39.1992C7.76302 38.9883 7.81771 38.7865 7.89062 38.5938C7.96354 38.401 8.05469 38.2227 8.16406 38.0586C8.27344 37.8919 8.40495 37.7474 8.55859 37.625C8.70964 37.5052 8.88151 37.4102 9.07422 37.3398C9.26693 37.2695 9.48307 37.2344 9.72266 37.2344C9.98828 37.2344 10.2331 37.276 10.457 37.3594C10.681 37.4401 10.8763 37.556 11.043 37.707C11.2096 37.8607 11.3438 38.0456 11.4453 38.2617C11.5469 38.4753 11.6094 38.7148 11.6328 38.9805H10.918C10.8893 38.8164 10.8451 38.6654 10.7852 38.5273C10.7253 38.3867 10.6471 38.2669 10.5508 38.168C10.4518 38.069 10.3346 37.9922 10.1992 37.9375C10.0638 37.8802 9.90625 37.8516 9.72656 37.8516C9.55469 37.8516 9.40234 37.8815 9.26953 37.9414C9.13672 37.9987 9.02083 38.0768 8.92188 38.1758C8.82292 38.2747 8.74089 38.3906 8.67578 38.5234C8.61068 38.6536 8.55729 38.7917 8.51562 38.9375C8.47396 39.0833 8.44401 39.2318 8.42578 39.3828C8.40755 39.5339 8.39844 39.6797 8.39844 39.8203V40.4883C8.40104 40.6315 8.41276 40.7799 8.43359 40.9336C8.45703 41.0846 8.49219 41.2331 8.53906 41.3789C8.58594 41.5247 8.64583 41.6628 8.71875 41.793C8.79167 41.9232 8.88021 42.0378 8.98438 42.1367C9.08594 42.2357 9.20443 42.3151 9.33984 42.375C9.47526 42.4323 9.62891 42.4622 9.80078 42.4648C9.89974 42.4674 10.0026 42.4635 10.1094 42.4531C10.2188 42.4427 10.3242 42.4219 10.4258 42.3906C10.5273 42.3594 10.6224 42.3177 10.7109 42.2656C10.7995 42.2109 10.8737 42.1406 10.9336 42.0547L10.9414 40.7773H9.78516V40.168H11.6289L11.6406 42.2539ZM14.6328 43.0781C14.3359 43.0781 14.0625 43.0273 13.8125 42.9258C13.5651 42.8242 13.3529 42.6823 13.1758 42.5C12.9987 42.3177 12.8607 42.1016 12.7617 41.8516C12.6628 41.6016 12.6133 41.3294 12.6133 41.0352V40.8711C12.6133 40.5299 12.668 40.2253 12.7773 39.957C12.8867 39.6862 13.0326 39.457 13.2148 39.2695C13.3945 39.0846 13.599 38.9427 13.8281 38.8438C14.0599 38.7448 14.2969 38.6953 14.5391 38.6953C14.8438 38.6953 15.1094 38.7487 15.3359 38.8555C15.5651 38.9596 15.7552 39.1042 15.9062 39.2891C16.0573 39.4766 16.1693 39.6966 16.2422 39.9492C16.3177 40.2018 16.3555 40.4753 16.3555 40.7695V41.0938H13.3359V41.1211C13.3542 41.3268 13.3945 41.5078 13.457 41.6641C13.5221 41.8203 13.6107 41.9583 13.7227 42.0781C13.8372 42.2057 13.9753 42.306 14.1367 42.3789C14.2982 42.4518 14.4766 42.4883 14.6719 42.4883C14.9297 42.4883 15.1589 42.4362 15.3594 42.332C15.5599 42.2279 15.7266 42.0898 15.8594 41.918L16.3008 42.2617C16.1602 42.4753 15.9492 42.6654 15.668 42.832C15.3893 42.9961 15.0443 43.0781 14.6328 43.0781ZM14.5391 39.2891C14.3932 39.2891 14.2552 39.3164 14.125 39.3711C13.9948 39.4232 13.8776 39.5 13.7734 39.6016C13.6693 39.7057 13.5807 39.8333 13.5078 39.9844C13.4375 40.1328 13.388 40.3047 13.3594 40.5H15.6328V40.4648C15.6328 40.3346 15.6081 40.1953 15.5586 40.0469C15.5091 39.8958 15.4401 39.7656 15.3516 39.6562C15.263 39.5469 15.151 39.4583 15.0156 39.3906C14.8828 39.3229 14.724 39.2891 14.5391 39.2891ZM17.5703 43V38.7734H18.2188L18.2695 39.3984C18.332 39.3099 18.3997 39.2292 18.4727 39.1562C18.5482 39.0807 18.6276 39.0156 18.7109 38.9609C18.8359 38.8776 18.9714 38.8138 19.1172 38.7695C19.2656 38.7227 19.4219 38.6979 19.5859 38.6953C19.8073 38.6953 20.0078 38.7266 20.1875 38.7891C20.3698 38.8516 20.5247 38.9492 20.6523 39.082C20.7799 39.2148 20.8776 39.3841 20.9453 39.5898C21.0156 39.793 21.0508 40.0352 21.0508 40.3164V43H20.3281V40.332C20.3281 40.1445 20.3073 39.9857 20.2656 39.8555C20.224 39.7253 20.1628 39.6198 20.082 39.5391C19.9987 39.4583 19.8971 39.3997 19.7773 39.3633C19.6602 39.3268 19.5247 39.3086 19.3711 39.3086C19.2383 39.3086 19.1146 39.3281 19 39.3672C18.8854 39.4036 18.7799 39.4544 18.6836 39.5195C18.6055 39.5768 18.5326 39.6432 18.4648 39.7188C18.3997 39.7943 18.3424 39.8776 18.293 39.9688V43H17.5703ZM24.2422 43.0781C23.9453 43.0781 23.6719 43.0273 23.4219 42.9258C23.1745 42.8242 22.9622 42.6823 22.7852 42.5C22.6081 42.3177 22.4701 42.1016 22.3711 41.8516C22.2721 41.6016 22.2227 41.3294 22.2227 41.0352V40.8711C22.2227 40.5299 22.2773 40.2253 22.3867 39.957C22.4961 39.6862 22.6419 39.457 22.8242 39.2695C23.0039 39.0846 23.2083 38.9427 23.4375 38.8438C23.6693 38.7448 23.9062 38.6953 24.1484 38.6953C24.4531 38.6953 24.7188 38.7487 24.9453 38.8555C25.1745 38.9596 25.3646 39.1042 25.5156 39.2891C25.6667 39.4766 25.7786 39.6966 25.8516 39.9492C25.9271 40.2018 25.9648 40.4753 25.9648 40.7695V41.0938H22.9453V41.1211C22.9635 41.3268 23.0039 41.5078 23.0664 41.6641C23.1315 41.8203 23.2201 41.9583 23.332 42.0781C23.4466 42.2057 23.5846 42.306 23.7461 42.3789C23.9076 42.4518 24.0859 42.4883 24.2812 42.4883C24.5391 42.4883 24.7682 42.4362 24.9688 42.332C25.1693 42.2279 25.3359 42.0898 25.4688 41.918L25.9102 42.2617C25.7695 42.4753 25.5586 42.6654 25.2773 42.832C24.9987 42.9961 24.6536 43.0781 24.2422 43.0781ZM24.1484 39.2891C24.0026 39.2891 23.8646 39.3164 23.7344 39.3711C23.6042 39.4232 23.487 39.5 23.3828 39.6016C23.2786 39.7057 23.1901 39.8333 23.1172 39.9844C23.0469 40.1328 22.9974 40.3047 22.9688 40.5H25.2422V40.4648C25.2422 40.3346 25.2174 40.1953 25.168 40.0469C25.1185 39.8958 25.0495 39.7656 24.9609 39.6562C24.8724 39.5469 24.7604 39.4583 24.625 39.3906C24.4922 39.3229 24.3333 39.2891 24.1484 39.2891ZM29.9492 38.6953C30.082 38.6953 30.2201 38.7044 30.3633 38.7227C30.5091 38.7409 30.6185 38.7656 30.6914 38.7969L30.5938 39.5039C30.4531 39.4727 30.319 39.4505 30.1914 39.4375C30.0664 39.4219 29.9349 39.4141 29.7969 39.4141C29.6198 39.4141 29.4596 39.4362 29.3164 39.4805C29.1732 39.5221 29.0482 39.5846 28.9414 39.668C28.8451 39.7409 28.7604 39.8307 28.6875 39.9375C28.6172 40.0417 28.5586 40.1589 28.5117 40.2891V43H27.7852V38.7734H28.4727L28.5039 39.3398L28.5078 39.4453C28.6797 39.2135 28.8854 39.0312 29.125 38.8984C29.3672 38.763 29.6419 38.6953 29.9492 38.6953ZM34.7617 43C34.7331 42.9453 34.7096 42.8776 34.6914 42.7969C34.6758 42.7135 34.6641 42.6276 34.6562 42.5391C34.5833 42.612 34.5013 42.681 34.4102 42.7461C34.3216 42.8112 34.224 42.8685 34.1172 42.918C34.0078 42.9674 33.8919 43.0065 33.7695 43.0352C33.6471 43.0638 33.5169 43.0781 33.3789 43.0781C33.1549 43.0781 32.9518 43.0456 32.7695 42.9805C32.5898 42.9154 32.4375 42.8268 32.3125 42.7148C32.1849 42.6055 32.0859 42.4753 32.0156 42.3242C31.9479 42.1706 31.9141 42.0052 31.9141 41.8281C31.9141 41.5964 31.9596 41.3932 32.0508 41.2188C32.1445 41.0443 32.276 40.8984 32.4453 40.7812C32.6146 40.6667 32.8177 40.5807 33.0547 40.5234C33.2943 40.4661 33.5612 40.4375 33.8555 40.4375H34.6445V40.1055C34.6445 39.9779 34.6211 39.8633 34.5742 39.7617C34.5273 39.6602 34.4609 39.5729 34.375 39.5C34.2891 39.4297 34.1836 39.375 34.0586 39.3359C33.9362 39.2969 33.7982 39.2773 33.6445 39.2773C33.5013 39.2773 33.3724 39.2956 33.2578 39.332C33.1458 39.3685 33.0508 39.4167 32.9727 39.4766C32.8945 39.5365 32.8333 39.6081 32.7891 39.6914C32.7474 39.7721 32.7266 39.8568 32.7266 39.9453H32C32.0026 39.7917 32.0417 39.6406 32.1172 39.4922C32.1953 39.3438 32.3073 39.2096 32.4531 39.0898C32.5964 38.9727 32.7708 38.8776 32.9766 38.8047C33.1849 38.7318 33.4206 38.6953 33.6836 38.6953C33.9232 38.6953 34.1458 38.7253 34.3516 38.7852C34.5573 38.8424 34.7357 38.9297 34.8867 39.0469C35.0352 39.1667 35.1523 39.3151 35.2383 39.4922C35.3242 39.6693 35.3672 39.8763 35.3672 40.1133V42.0781C35.3672 42.2188 35.3802 42.3685 35.4062 42.5273C35.4323 42.6836 35.4688 42.8203 35.5156 42.9375V43H34.7617ZM33.4844 42.4492C33.625 42.4492 33.7565 42.431 33.8789 42.3945C34.0013 42.3581 34.1133 42.3099 34.2148 42.25C34.3138 42.1901 34.3997 42.1224 34.4727 42.0469C34.5456 41.9688 34.6029 41.888 34.6445 41.8047V40.9492H33.9727C33.7227 40.9492 33.5039 40.9714 33.3164 41.0156C33.1315 41.0573 32.9844 41.1224 32.875 41.2109C32.7969 41.2734 32.737 41.3477 32.6953 41.4336C32.6562 41.5195 32.6367 41.6172 32.6367 41.7266C32.6367 41.8307 32.6536 41.9271 32.6875 42.0156C32.724 42.1042 32.7773 42.1797 32.8477 42.2422C32.918 42.3073 33.0065 42.3581 33.1133 42.3945C33.2201 42.431 33.3438 42.4492 33.4844 42.4492ZM38.5 37.75V38.7734H40.1094V39.332H38.5V41.6289C38.5 41.793 38.5208 41.9284 38.5625 42.0352C38.6042 42.1419 38.6615 42.2266 38.7344 42.2891C38.8073 42.3542 38.8906 42.3997 38.9844 42.4258C39.0807 42.4518 39.1823 42.4648 39.2891 42.4648C39.3672 42.4648 39.4479 42.4609 39.5312 42.4531C39.6146 42.4427 39.6966 42.431 39.7773 42.418C39.8555 42.4049 39.9284 42.3919 39.9961 42.3789C40.0664 42.3633 40.1237 42.3503 40.168 42.3398L40.2695 42.8516C40.2096 42.888 40.1367 42.9206 40.0508 42.9492C39.9648 42.9753 39.8711 42.9974 39.7695 43.0156C39.668 43.0365 39.5599 43.0521 39.4453 43.0625C39.3333 43.0729 39.2214 43.0781 39.1094 43.0781C38.9219 43.0781 38.7461 43.0521 38.582 43C38.4206 42.9453 38.2799 42.8594 38.1602 42.7422C38.0404 42.6276 37.9453 42.4792 37.875 42.2969C37.8073 42.112 37.7734 41.8893 37.7734 41.6289V39.332H36.6641V38.7734H37.7734V37.75H38.5ZM43.4609 43.0781C43.1641 43.0781 42.8906 43.0273 42.6406 42.9258C42.3932 42.8242 42.181 42.6823 42.0039 42.5C41.8268 42.3177 41.6888 42.1016 41.5898 41.8516C41.4909 41.6016 41.4414 41.3294 41.4414 41.0352V40.8711C41.4414 40.5299 41.4961 40.2253 41.6055 39.957C41.7148 39.6862 41.8607 39.457 42.043 39.2695C42.2227 39.0846 42.4271 38.9427 42.6562 38.8438C42.888 38.7448 43.125 38.6953 43.3672 38.6953C43.6719 38.6953 43.9375 38.7487 44.1641 38.8555C44.3932 38.9596 44.5833 39.1042 44.7344 39.2891C44.8854 39.4766 44.9974 39.6966 45.0703 39.9492C45.1458 40.2018 45.1836 40.4753 45.1836 40.7695V41.0938H42.1641V41.1211C42.1823 41.3268 42.2227 41.5078 42.2852 41.6641C42.3503 41.8203 42.4388 41.9583 42.5508 42.0781C42.6654 42.2057 42.8034 42.306 42.9648 42.3789C43.1263 42.4518 43.3047 42.4883 43.5 42.4883C43.7578 42.4883 43.987 42.4362 44.1875 42.332C44.388 42.2279 44.5547 42.0898 44.6875 41.918L45.1289 42.2617C44.9883 42.4753 44.7773 42.6654 44.4961 42.832C44.2174 42.9961 43.8724 43.0781 43.4609 43.0781ZM43.3672 39.2891C43.2214 39.2891 43.0833 39.3164 42.9531 39.3711C42.8229 39.4232 42.7057 39.5 42.6016 39.6016C42.4974 39.7057 42.4089 39.8333 42.3359 39.9844C42.2656 40.1328 42.2161 40.3047 42.1875 40.5H44.4609V40.4648C44.4609 40.3346 44.4362 40.1953 44.3867 40.0469C44.3372 39.8958 44.2682 39.7656 44.1797 39.6562C44.0911 39.5469 43.9792 39.4583 43.8438 39.3906C43.7109 39.3229 43.5521 39.2891 43.3672 39.2891ZM18.3633 47.3125L19.2891 50.1562L20.2891 47.3125H21.1875V53H20.4844V50.7305L20.543 48.3555L19.4922 51.418H19.0781L18.1133 48.4375L18.1719 50.7305V53H17.4688V47.3125H18.3633ZM22.1719 50.8477C22.1719 50.543 22.2161 50.2604 22.3047 50C22.3932 49.737 22.5208 49.5091 22.6875 49.3164C22.8516 49.1237 23.0521 48.9727 23.2891 48.8633C23.526 48.7513 23.793 48.6953 24.0898 48.6953C24.3893 48.6953 24.6576 48.7513 24.8945 48.8633C25.1341 48.9727 25.3372 49.1237 25.5039 49.3164C25.668 49.5091 25.7943 49.737 25.8828 50C25.9714 50.2604 26.0156 50.543 26.0156 50.8477V50.9336C26.0156 51.2383 25.9714 51.5208 25.8828 51.7812C25.7943 52.0417 25.668 52.2682 25.5039 52.4609C25.3372 52.6536 25.1354 52.8047 24.8984 52.9141C24.6615 53.0234 24.3945 53.0781 24.0977 53.0781C23.7982 53.0781 23.5286 53.0234 23.2891 52.9141C23.0521 52.8047 22.8516 52.6536 22.6875 52.4609C22.5208 52.2682 22.3932 52.0417 22.3047 51.7812C22.2161 51.5208 22.1719 51.2383 22.1719 50.9336V50.8477ZM22.8945 50.9336C22.8945 51.1419 22.9193 51.3411 22.9688 51.5312C23.0182 51.7188 23.0938 51.8841 23.1953 52.0273C23.2943 52.1706 23.4193 52.2839 23.5703 52.3672C23.7214 52.4505 23.8971 52.4922 24.0977 52.4922C24.2956 52.4922 24.4688 52.4505 24.6172 52.3672C24.7682 52.2839 24.8945 52.1706 24.9961 52.0273C25.0951 51.8841 25.1693 51.7188 25.2188 51.5312C25.2682 51.3411 25.293 51.1419 25.293 50.9336V50.8477C25.293 50.6419 25.2669 50.4453 25.2148 50.2578C25.1654 50.0677 25.0911 49.901 24.9922 49.7578C24.8906 49.6146 24.7643 49.5013 24.6133 49.418C24.4648 49.332 24.2904 49.2891 24.0898 49.2891C23.8893 49.2891 23.7148 49.332 23.5664 49.418C23.418 49.5013 23.2943 49.6146 23.1953 49.7578C23.0938 49.901 23.0182 50.0677 22.9688 50.2578C22.9193 50.4453 22.8945 50.6419 22.8945 50.8477V50.9336ZM29.9492 48.6953C30.082 48.6953 30.2201 48.7044 30.3633 48.7227C30.5091 48.7409 30.6185 48.7656 30.6914 48.7969L30.5938 49.5039C30.4531 49.4727 30.319 49.4505 30.1914 49.4375C30.0664 49.4219 29.9349 49.4141 29.7969 49.4141C29.6198 49.4141 29.4596 49.4362 29.3164 49.4805C29.1732 49.5221 29.0482 49.5846 28.9414 49.668C28.8451 49.7409 28.7604 49.8307 28.6875 49.9375C28.6172 50.0417 28.5586 50.1589 28.5117 50.2891V53H27.7852V48.7734H28.4727L28.5039 49.3398L28.5078 49.4453C28.6797 49.2135 28.8854 49.0312 29.125 48.8984C29.3672 48.763 29.6419 48.6953 29.9492 48.6953ZM33.8516 53.0781C33.5547 53.0781 33.2812 53.0273 33.0312 52.9258C32.7839 52.8242 32.5716 52.6823 32.3945 52.5C32.2174 52.3177 32.0794 52.1016 31.9805 51.8516C31.8815 51.6016 31.832 51.3294 31.832 51.0352V50.8711C31.832 50.5299 31.8867 50.2253 31.9961 49.957C32.1055 49.6862 32.2513 49.457 32.4336 49.2695C32.6133 49.0846 32.8177 48.9427 33.0469 48.8438C33.2786 48.7448 33.5156 48.6953 33.7578 48.6953C34.0625 48.6953 34.3281 48.7487 34.5547 48.8555C34.7839 48.9596 34.974 49.1042 35.125 49.2891C35.276 49.4766 35.388 49.6966 35.4609 49.9492C35.5365 50.2018 35.5742 50.4753 35.5742 50.7695V51.0938H32.5547V51.1211C32.5729 51.3268 32.6133 51.5078 32.6758 51.6641C32.7409 51.8203 32.8294 51.9583 32.9414 52.0781C33.056 52.2057 33.194 52.306 33.3555 52.3789C33.5169 52.4518 33.6953 52.4883 33.8906 52.4883C34.1484 52.4883 34.3776 52.4362 34.5781 52.332C34.7786 52.2279 34.9453 52.0898 35.0781 51.918L35.5195 52.2617C35.3789 52.4753 35.168 52.6654 34.8867 52.832C34.6081 52.9961 34.263 53.0781 33.8516 53.0781ZM33.7578 49.2891C33.612 49.2891 33.474 49.3164 33.3438 49.3711C33.2135 49.4232 33.0964 49.5 32.9922 49.6016C32.888 49.7057 32.7995 49.8333 32.7266 49.9844C32.6562 50.1328 32.6068 50.3047 32.5781 50.5H34.8516V50.4648C34.8516 50.3346 34.8268 50.1953 34.7773 50.0469C34.7279 49.8958 34.6589 49.7656 34.5703 49.6562C34.4818 49.5469 34.3698 49.4583 34.2344 49.3906C34.1016 49.3229 33.9427 49.2891 33.7578 49.2891Z" fill="#B3B3B3"/>
<path d="M33.2066 22.0002C32.7712 22.0002 32.4166 22.3491 32.4166 22.7776C32.4166 24.4917 30.9983 25.8874 29.2566 25.8874H21.3686V24.66C21.3686 24.3661 21.0077 24.2192 20.7963 24.4273L19.098 26.4323C18.9673 26.5608 18.9673 26.7689 19.098 26.8975L20.7994 28.9024C21.0109 29.1106 21.3717 28.9636 21.3717 28.6698V27.4424H29.2597C31.8724 27.4424 34 25.3487 34 22.7775C33.9969 22.349 33.6423 22 33.2068 22L33.2066 22.0002Z" fill="#B3B3B3"/>
<path d="M31.6303 19.1126V20.34C31.6303 20.6339 31.9908 20.7808 32.2021 20.5727L33.9021 18.5677C34.0326 18.4392 34.0326 18.2311 33.9021 18.1025L32.2021 16.0976C31.9908 15.8894 31.6303 16.0364 31.6303 16.3302V17.5576H23.7364C21.1258 17.5576 19 19.6513 19 22.2225C19 22.651 19.3543 23 19.7894 23C20.2245 23 20.5788 22.651 20.5788 22.2225C20.5788 20.5084 21.9959 19.1128 23.7362 19.1128L31.6303 19.1126Z" fill="#B3B3B3"/>
</svg>
