<svg width="294" height="20" viewBox="0 0 294 20" fill="none" xmlns="http://www.w3.org/2000/svg">
<path d="M29.3213 13C29.2855 12.9316 29.2562 12.847 29.2334 12.7461C29.2139 12.6419 29.1992 12.5345 29.1895 12.4238C29.0983 12.515 28.9958 12.6012 28.8818 12.6826C28.7712 12.764 28.6491 12.8356 28.5156 12.8975C28.3789 12.9593 28.234 13.0081 28.0811 13.0439C27.9281 13.0798 27.7653 13.0977 27.5928 13.0977C27.3128 13.0977 27.0589 13.057 26.8311 12.9756C26.6064 12.8942 26.416 12.7835 26.2598 12.6436C26.1003 12.5068 25.9766 12.3441 25.8887 12.1553C25.804 11.9632 25.7617 11.7565 25.7617 11.5352C25.7617 11.2454 25.8187 10.9915 25.9326 10.7734C26.0498 10.5553 26.2142 10.373 26.4258 10.2266C26.6374 10.0833 26.8913 9.97591 27.1875 9.9043C27.487 9.83268 27.8206 9.79688 28.1885 9.79688H29.1748V9.38184C29.1748 9.22233 29.1455 9.0791 29.0869 8.95215C29.0283 8.8252 28.9453 8.71615 28.8379 8.625C28.7305 8.53711 28.5986 8.46875 28.4424 8.41992C28.2894 8.37109 28.1169 8.34668 27.9248 8.34668C27.7458 8.34668 27.5846 8.36947 27.4414 8.41504C27.3014 8.46061 27.1826 8.52083 27.085 8.5957C26.9873 8.67057 26.9108 8.76009 26.8555 8.86426C26.8034 8.96517 26.7773 9.07096 26.7773 9.18164H25.8691C25.8724 8.98958 25.9212 8.80078 26.0156 8.61523C26.1133 8.42969 26.2533 8.26204 26.4355 8.1123C26.6146 7.96582 26.8327 7.84701 27.0898 7.75586C27.3503 7.66471 27.6449 7.61914 27.9736 7.61914C28.2731 7.61914 28.5514 7.65658 28.8086 7.73145C29.0658 7.80306 29.2887 7.91211 29.4775 8.05859C29.6631 8.20833 29.8096 8.39388 29.917 8.61523C30.0244 8.83659 30.0781 9.09538 30.0781 9.3916V11.8477C30.0781 12.0234 30.0944 12.2106 30.127 12.4092C30.1595 12.6045 30.2051 12.7754 30.2637 12.9219V13H29.3213ZM27.7246 12.3115C27.9004 12.3115 28.0648 12.2887 28.2178 12.2432C28.3708 12.1976 28.5107 12.1374 28.6377 12.0625C28.7614 11.9876 28.8688 11.903 28.96 11.8086C29.0511 11.7109 29.1227 11.61 29.1748 11.5059V10.4365H28.335C28.0225 10.4365 27.749 10.4642 27.5146 10.5195C27.2835 10.5716 27.0996 10.653 26.9629 10.7637C26.8652 10.8418 26.7904 10.9346 26.7383 11.042C26.6895 11.1494 26.665 11.2715 26.665 11.4082C26.665 11.5384 26.6862 11.6589 26.7285 11.7695C26.7741 11.8802 26.8408 11.9746 26.9287 12.0527C27.0166 12.1341 27.1273 12.1976 27.2607 12.2432C27.3942 12.2887 27.5488 12.3115 27.7246 12.3115ZM38.0029 5.5H40.7031V12.2188H42.4268V13H38.0029V12.2188H39.7998V6.28613H38.0029V5.5ZM44.0088 7.7168H46.709V12.2188H48.4326V13H44.0088V12.2188H45.8057V8.50293H44.0088V7.7168ZM45.6885 6.33008C45.6885 6.25195 45.6999 6.17871 45.7227 6.11035C45.7487 6.04199 45.7878 5.9834 45.8398 5.93457C45.8822 5.89225 45.9359 5.8597 46.001 5.83691C46.0693 5.81087 46.1458 5.79785 46.2305 5.79785C46.3151 5.79785 46.39 5.81087 46.4551 5.83691C46.5202 5.8597 46.5739 5.89225 46.6162 5.93457C46.6683 5.98014 46.7074 6.03711 46.7334 6.10547C46.7594 6.17383 46.7725 6.2487 46.7725 6.33008C46.7725 6.47656 46.7269 6.59863 46.6357 6.69629C46.5446 6.79395 46.4095 6.84277 46.2305 6.84277C46.0482 6.84277 45.9115 6.79395 45.8203 6.69629C45.7324 6.59863 45.6885 6.47656 45.6885 6.33008ZM52.0117 6.4375V7.7168H54.0234V8.41504H52.0117V11.2861C52.0117 11.4912 52.0378 11.6605 52.0898 11.7939C52.1419 11.9274 52.2135 12.0332 52.3047 12.1113C52.3958 12.1927 52.5 12.2497 52.6172 12.2822C52.7376 12.3148 52.8646 12.3311 52.998 12.3311C53.0957 12.3311 53.1966 12.3262 53.3008 12.3164C53.4049 12.3034 53.5075 12.2887 53.6084 12.2725C53.7061 12.2562 53.7972 12.2399 53.8818 12.2236C53.9697 12.2041 54.0413 12.1878 54.0967 12.1748L54.2236 12.8145C54.1488 12.86 54.0576 12.9007 53.9502 12.9365C53.8428 12.9691 53.7256 12.9967 53.5986 13.0195C53.4717 13.0456 53.3366 13.0651 53.1934 13.0781C53.0534 13.0911 52.9134 13.0977 52.7734 13.0977C52.5391 13.0977 52.3193 13.0651 52.1143 13C51.9124 12.9316 51.7367 12.8242 51.5869 12.6777C51.4372 12.5345 51.3184 12.349 51.2305 12.1211C51.1458 11.89 51.1035 11.6117 51.1035 11.2861V8.41504H49.7168V7.7168H51.1035V6.4375H52.0117ZM58.0176 6.4375V7.7168H60.0293V8.41504H58.0176V11.2861C58.0176 11.4912 58.0436 11.6605 58.0957 11.7939C58.1478 11.9274 58.2194 12.0332 58.3105 12.1113C58.4017 12.1927 58.5059 12.2497 58.623 12.2822C58.7435 12.3148 58.8704 12.3311 59.0039 12.3311C59.1016 12.3311 59.2025 12.3262 59.3066 12.3164C59.4108 12.3034 59.5133 12.2887 59.6143 12.2725C59.7119 12.2562 59.8031 12.2399 59.8877 12.2236C59.9756 12.2041 60.0472 12.1878 60.1025 12.1748L60.2295 12.8145C60.1546 12.86 60.0635 12.9007 59.9561 12.9365C59.8486 12.9691 59.7314 12.9967 59.6045 13.0195C59.4775 13.0456 59.3424 13.0651 59.1992 13.0781C59.0592 13.0911 58.9193 13.0977 58.7793 13.0977C58.5449 13.0977 58.3252 13.0651 58.1201 13C57.9183 12.9316 57.7425 12.8242 57.5928 12.6777C57.443 12.5345 57.3242 12.349 57.2363 12.1211C57.1517 11.89 57.1094 11.6117 57.1094 11.2861V8.41504H55.7227V7.7168H57.1094V6.4375H58.0176ZM62.0264 5.5H64.7266V12.2188H66.4502V13H62.0264V12.2188H63.8232V6.28613H62.0264V5.5ZM70.2246 13.0977C69.8535 13.0977 69.5117 13.0342 69.1992 12.9072C68.89 12.7803 68.6247 12.6029 68.4033 12.375C68.182 12.1471 68.0094 11.877 67.8857 11.5645C67.762 11.252 67.7002 10.9118 67.7002 10.5439V10.3389C67.7002 9.91243 67.7686 9.53158 67.9053 9.19629C68.042 8.85775 68.2243 8.57129 68.4521 8.33691C68.6768 8.10579 68.9323 7.92839 69.2188 7.80469C69.5085 7.68099 69.8047 7.61914 70.1074 7.61914C70.4883 7.61914 70.8203 7.68587 71.1035 7.81934C71.39 7.94954 71.6276 8.13021 71.8164 8.36133C72.0052 8.5957 72.1452 8.87077 72.2363 9.18652C72.3307 9.50228 72.3779 9.84408 72.3779 10.2119V10.6172H68.6035V10.6514C68.6263 10.9085 68.6768 11.1348 68.7549 11.3301C68.8363 11.5254 68.9469 11.6979 69.0869 11.8477C69.2301 12.0072 69.4027 12.1325 69.6045 12.2236C69.8063 12.3148 70.0293 12.3604 70.2734 12.3604C70.5957 12.3604 70.8822 12.2952 71.1328 12.165C71.3835 12.0348 71.5918 11.8623 71.7578 11.6475L72.3096 12.0771C72.1338 12.3441 71.8701 12.5817 71.5186 12.79C71.1702 12.9951 70.7389 13.0977 70.2246 13.0977ZM70.1074 8.36133C69.9251 8.36133 69.7526 8.39551 69.5898 8.46387C69.4271 8.52897 69.2806 8.625 69.1504 8.75195C69.0202 8.88216 68.9095 9.04167 68.8184 9.23047C68.7305 9.41602 68.6686 9.63086 68.6328 9.875H71.4746V9.83105C71.4746 9.66829 71.4437 9.49414 71.3818 9.30859C71.32 9.11979 71.2337 8.95703 71.123 8.82031C71.0124 8.68359 70.8724 8.57292 70.7031 8.48828C70.5371 8.40365 70.3385 8.36133 70.1074 8.36133ZM79.6484 10.3096C79.6484 9.92871 79.7038 9.57552 79.8145 9.25C79.9251 8.92122 80.0846 8.63639 80.293 8.39551C80.498 8.15462 80.7487 7.96582 81.0449 7.8291C81.3411 7.68913 81.6748 7.61914 82.0459 7.61914C82.4202 7.61914 82.7555 7.68913 83.0518 7.8291C83.3512 7.96582 83.6051 8.15462 83.8135 8.39551C84.0186 8.63639 84.1764 8.92122 84.2871 9.25C84.3978 9.57552 84.4531 9.92871 84.4531 10.3096V10.417C84.4531 10.7979 84.3978 11.151 84.2871 11.4766C84.1764 11.8021 84.0186 12.0853 83.8135 12.3262C83.6051 12.5671 83.3529 12.7559 83.0566 12.8926C82.7604 13.0293 82.4268 13.0977 82.0557 13.0977C81.6813 13.0977 81.3444 13.0293 81.0449 12.8926C80.7487 12.7559 80.498 12.5671 80.293 12.3262C80.0846 12.0853 79.9251 11.8021 79.8145 11.4766C79.7038 11.151 79.6484 10.7979 79.6484 10.417V10.3096ZM80.5518 10.417C80.5518 10.6774 80.5827 10.9264 80.6445 11.1641C80.7064 11.3984 80.8008 11.6051 80.9277 11.7842C81.0514 11.9632 81.2077 12.1048 81.3965 12.209C81.5853 12.3132 81.805 12.3652 82.0557 12.3652C82.3031 12.3652 82.5195 12.3132 82.7051 12.209C82.8939 12.1048 83.0518 11.9632 83.1787 11.7842C83.3024 11.6051 83.3952 11.3984 83.457 11.1641C83.5189 10.9264 83.5498 10.6774 83.5498 10.417V10.3096C83.5498 10.0524 83.5173 9.80664 83.4521 9.57227C83.3903 9.33464 83.2975 9.1263 83.1738 8.94727C83.0469 8.76823 82.889 8.62663 82.7002 8.52246C82.5146 8.41504 82.2965 8.36133 82.0459 8.36133C81.7952 8.36133 81.5771 8.41504 81.3916 8.52246C81.2061 8.62663 81.0514 8.76823 80.9277 8.94727C80.8008 9.1263 80.7064 9.33464 80.6445 9.57227C80.5827 9.80664 80.5518 10.0524 80.5518 10.3096V10.417ZM89.3701 7.61914C89.5361 7.61914 89.7087 7.63053 89.8877 7.65332C90.07 7.67611 90.2067 7.70703 90.2979 7.74609L90.1758 8.62988C90 8.59082 89.8324 8.56315 89.6729 8.54688C89.5166 8.52734 89.3522 8.51758 89.1797 8.51758C88.9583 8.51758 88.7581 8.54525 88.5791 8.60059C88.4001 8.65267 88.2438 8.73079 88.1104 8.83496C87.9899 8.92611 87.8841 9.03841 87.793 9.17188C87.7051 9.30208 87.6318 9.44857 87.5732 9.61133V13H86.665V7.7168H87.5244L87.5635 8.4248L87.5684 8.55664C87.7832 8.26693 88.0404 8.03906 88.3398 7.87305C88.6426 7.70378 88.986 7.61914 89.3701 7.61914ZM95.3857 13C95.3499 12.9316 95.3206 12.847 95.2979 12.7461C95.2783 12.6419 95.2637 12.5345 95.2539 12.4238C95.1628 12.515 95.0602 12.6012 94.9463 12.6826C94.8356 12.764 94.7135 12.8356 94.5801 12.8975C94.4434 12.9593 94.2985 13.0081 94.1455 13.0439C93.9925 13.0798 93.8298 13.0977 93.6572 13.0977C93.3773 13.0977 93.1234 13.057 92.8955 12.9756C92.6709 12.8942 92.4805 12.7835 92.3242 12.6436C92.1647 12.5068 92.041 12.3441 91.9531 12.1553C91.8685 11.9632 91.8262 11.7565 91.8262 11.5352C91.8262 11.2454 91.8831 10.9915 91.9971 10.7734C92.1143 10.5553 92.2786 10.373 92.4902 10.2266C92.7018 10.0833 92.9557 9.97591 93.252 9.9043C93.5514 9.83268 93.8851 9.79688 94.2529 9.79688H95.2393V9.38184C95.2393 9.22233 95.21 9.0791 95.1514 8.95215C95.0928 8.8252 95.0098 8.71615 94.9023 8.625C94.7949 8.53711 94.6631 8.46875 94.5068 8.41992C94.3538 8.37109 94.1813 8.34668 93.9893 8.34668C93.8102 8.34668 93.6491 8.36947 93.5059 8.41504C93.3659 8.46061 93.2471 8.52083 93.1494 8.5957C93.0518 8.67057 92.9753 8.76009 92.9199 8.86426C92.8678 8.96517 92.8418 9.07096 92.8418 9.18164H91.9336C91.9368 8.98958 91.9857 8.80078 92.0801 8.61523C92.1777 8.42969 92.3177 8.26204 92.5 8.1123C92.679 7.96582 92.8971 7.84701 93.1543 7.75586C93.4147 7.66471 93.7093 7.61914 94.0381 7.61914C94.3376 7.61914 94.6159 7.65658 94.873 7.73145C95.1302 7.80306 95.3532 7.91211 95.542 8.05859C95.7275 8.20833 95.874 8.39388 95.9814 8.61523C96.0889 8.83659 96.1426 9.09538 96.1426 9.3916V11.8477C96.1426 12.0234 96.1589 12.2106 96.1914 12.4092C96.224 12.6045 96.2695 12.7754 96.3281 12.9219V13H95.3857ZM93.7891 12.3115C93.9648 12.3115 94.1292 12.2887 94.2822 12.2432C94.4352 12.1976 94.5752 12.1374 94.7021 12.0625C94.8258 11.9876 94.9333 11.903 95.0244 11.8086C95.1156 11.7109 95.1872 11.61 95.2393 11.5059V10.4365H94.3994C94.0869 10.4365 93.8135 10.4642 93.5791 10.5195C93.348 10.5716 93.1641 10.653 93.0273 10.7637C92.9297 10.8418 92.8548 10.9346 92.8027 11.042C92.7539 11.1494 92.7295 11.2715 92.7295 11.4082C92.7295 11.5384 92.7507 11.6589 92.793 11.7695C92.8385 11.8802 92.9053 11.9746 92.9932 12.0527C93.0811 12.1341 93.1917 12.1976 93.3252 12.2432C93.4587 12.2887 93.6133 12.3115 93.7891 12.3115ZM97.9199 13V7.7168H98.7305L98.7939 8.49805C98.8721 8.38737 98.9567 8.28646 99.0479 8.19531C99.1423 8.10091 99.2415 8.01953 99.3457 7.95117C99.502 7.84701 99.6712 7.76725 99.8535 7.71191C100.039 7.65332 100.234 7.6224 100.439 7.61914C100.716 7.61914 100.967 7.6582 101.191 7.73633C101.419 7.81445 101.613 7.93652 101.772 8.10254C101.932 8.26855 102.054 8.48014 102.139 8.7373C102.227 8.99121 102.271 9.29395 102.271 9.64551V13H101.367V9.66504C101.367 9.43066 101.341 9.2321 101.289 9.06934C101.237 8.90658 101.16 8.77474 101.06 8.67383C100.955 8.57292 100.828 8.49967 100.679 8.4541C100.532 8.40853 100.363 8.38574 100.171 8.38574C100.005 8.38574 99.8503 8.41016 99.707 8.45898C99.5638 8.50456 99.432 8.56803 99.3115 8.64941C99.2139 8.72103 99.1227 8.80404 99.0381 8.89844C98.9567 8.99284 98.8851 9.09701 98.8232 9.21094V13H97.9199ZM103.76 10.3145C103.76 9.92057 103.807 9.55924 103.901 9.23047C103.999 8.89844 104.139 8.61361 104.321 8.37598C104.504 8.13835 104.725 7.9528 104.985 7.81934C105.246 7.68587 105.54 7.61914 105.869 7.61914C106.081 7.61914 106.274 7.64355 106.45 7.69238C106.629 7.74121 106.79 7.81283 106.934 7.90723C107.012 7.95605 107.085 8.01302 107.153 8.07812C107.225 8.14323 107.292 8.21484 107.354 8.29297L107.397 7.7168H108.218V12.8877C108.218 13.236 108.162 13.5452 108.052 13.8154C107.944 14.0856 107.793 14.3151 107.598 14.5039C107.399 14.6927 107.163 14.8359 106.89 14.9336C106.616 15.0312 106.313 15.0801 105.981 15.0801C105.845 15.0801 105.688 15.0638 105.513 15.0312C105.337 15.002 105.16 14.9515 104.98 14.8799C104.798 14.8115 104.622 14.7188 104.453 14.6016C104.287 14.4844 104.144 14.3395 104.023 14.167L104.492 13.625C104.603 13.7585 104.717 13.8708 104.834 13.9619C104.951 14.0563 105.07 14.1312 105.19 14.1865C105.311 14.2419 105.431 14.2809 105.552 14.3037C105.672 14.3298 105.793 14.3428 105.913 14.3428C106.128 14.3428 106.322 14.3118 106.494 14.25C106.667 14.1882 106.815 14.097 106.938 13.9766C107.059 13.8594 107.152 13.7129 107.217 13.5371C107.282 13.3613 107.314 13.1595 107.314 12.9316V12.4775C107.246 12.5557 107.173 12.6273 107.095 12.6924C107.02 12.7575 106.938 12.8145 106.851 12.8633C106.714 12.9382 106.562 12.9951 106.396 13.0342C106.23 13.0765 106.051 13.0977 105.859 13.0977C105.537 13.0977 105.246 13.0293 104.985 12.8926C104.725 12.7559 104.505 12.5671 104.326 12.3262C104.144 12.0853 104.004 11.8021 103.906 11.4766C103.809 11.1478 103.76 10.7946 103.76 10.417V10.3145ZM104.663 10.417C104.663 10.6742 104.689 10.9183 104.741 11.1494C104.797 11.3805 104.883 11.584 105 11.7598C105.114 11.9355 105.26 12.0755 105.439 12.1797C105.618 12.2806 105.833 12.3311 106.084 12.3311C106.24 12.3311 106.38 12.3132 106.504 12.2773C106.631 12.2383 106.745 12.1846 106.846 12.1162C106.943 12.0479 107.031 11.9665 107.109 11.8721C107.188 11.7777 107.256 11.6735 107.314 11.5596V9.1377C107.256 9.02702 107.188 8.92611 107.109 8.83496C107.031 8.74382 106.942 8.66406 106.841 8.5957C106.74 8.5306 106.628 8.48014 106.504 8.44434C106.38 8.40527 106.243 8.38574 106.094 8.38574C105.84 8.38574 105.622 8.43783 105.439 8.54199C105.26 8.64616 105.114 8.78613 105 8.96191C104.883 9.14095 104.797 9.34766 104.741 9.58203C104.689 9.81315 104.663 10.0573 104.663 10.3145V10.417ZM112.266 13.0977C111.895 13.0977 111.553 13.0342 111.24 12.9072C110.931 12.7803 110.666 12.6029 110.444 12.375C110.223 12.1471 110.05 11.877 109.927 11.5645C109.803 11.252 109.741 10.9118 109.741 10.5439V10.3389C109.741 9.91243 109.81 9.53158 109.946 9.19629C110.083 8.85775 110.265 8.57129 110.493 8.33691C110.718 8.10579 110.973 7.92839 111.26 7.80469C111.549 7.68099 111.846 7.61914 112.148 7.61914C112.529 7.61914 112.861 7.68587 113.145 7.81934C113.431 7.94954 113.669 8.13021 113.857 8.36133C114.046 8.5957 114.186 8.87077 114.277 9.18652C114.372 9.50228 114.419 9.84408 114.419 10.2119V10.6172H110.645V10.6514C110.667 10.9085 110.718 11.1348 110.796 11.3301C110.877 11.5254 110.988 11.6979 111.128 11.8477C111.271 12.0072 111.444 12.1325 111.646 12.2236C111.847 12.3148 112.07 12.3604 112.314 12.3604C112.637 12.3604 112.923 12.2952 113.174 12.165C113.424 12.0348 113.633 11.8623 113.799 11.6475L114.351 12.0771C114.175 12.3441 113.911 12.5817 113.56 12.79C113.211 12.9951 112.78 13.0977 112.266 13.0977ZM112.148 8.36133C111.966 8.36133 111.794 8.39551 111.631 8.46387C111.468 8.52897 111.322 8.625 111.191 8.75195C111.061 8.88216 110.951 9.04167 110.859 9.23047C110.771 9.41602 110.71 9.63086 110.674 9.875H113.516V9.83105C113.516 9.66829 113.485 9.49414 113.423 9.30859C113.361 9.11979 113.275 8.95703 113.164 8.82031C113.053 8.68359 112.913 8.57292 112.744 8.48828C112.578 8.40365 112.38 8.36133 112.148 8.36133ZM125.454 11.5986C125.454 11.4912 125.433 11.3952 125.391 11.3105C125.348 11.2227 125.277 11.1429 125.176 11.0713C125.075 10.9997 124.941 10.9346 124.775 10.876C124.609 10.8141 124.403 10.7588 124.155 10.71C123.853 10.6481 123.576 10.5732 123.325 10.4854C123.078 10.3975 122.866 10.2917 122.69 10.168C122.511 10.0475 122.373 9.90592 122.275 9.74316C122.178 9.57715 122.129 9.38509 122.129 9.16699C122.129 8.95215 122.179 8.75195 122.28 8.56641C122.381 8.3776 122.523 8.21322 122.705 8.07324C122.887 7.93327 123.104 7.82259 123.354 7.74121C123.608 7.65983 123.887 7.61914 124.189 7.61914C124.515 7.61914 124.808 7.66146 125.068 7.74609C125.329 7.83073 125.55 7.94792 125.732 8.09766C125.915 8.2474 126.055 8.42318 126.152 8.625C126.253 8.82357 126.304 9.03841 126.304 9.26953H125.4C125.4 9.1556 125.371 9.04492 125.312 8.9375C125.254 8.82682 125.173 8.72917 125.068 8.64453C124.964 8.5599 124.837 8.49154 124.688 8.43945C124.541 8.38737 124.375 8.36133 124.189 8.36133C123.997 8.36133 123.828 8.38249 123.682 8.4248C123.538 8.46712 123.42 8.52409 123.325 8.5957C123.228 8.66732 123.154 8.75033 123.105 8.84473C123.057 8.93913 123.032 9.03678 123.032 9.1377C123.032 9.24186 123.052 9.33464 123.091 9.41602C123.13 9.4974 123.198 9.57064 123.296 9.63574C123.39 9.70085 123.517 9.75944 123.677 9.81152C123.84 9.86361 124.045 9.91406 124.292 9.96289C124.618 10.0312 124.909 10.111 125.166 10.2021C125.423 10.29 125.64 10.3958 125.815 10.5195C125.991 10.6465 126.125 10.793 126.216 10.959C126.31 11.125 126.357 11.3171 126.357 11.5352C126.357 11.7695 126.304 11.9827 126.196 12.1748C126.092 12.3669 125.946 12.5312 125.757 12.668C125.568 12.8047 125.342 12.9105 125.078 12.9854C124.814 13.0602 124.526 13.0977 124.214 13.0977C123.856 13.0977 123.537 13.0505 123.257 12.9561C122.977 12.8584 122.741 12.7298 122.549 12.5703C122.354 12.4141 122.204 12.2318 122.1 12.0234C121.999 11.8151 121.948 11.5986 121.948 11.374H122.852C122.865 11.5596 122.913 11.7158 122.998 11.8428C123.086 11.9697 123.195 12.0723 123.325 12.1504C123.452 12.2285 123.594 12.2839 123.75 12.3164C123.906 12.349 124.061 12.3652 124.214 12.3652C124.455 12.3652 124.665 12.3376 124.844 12.2822C125.023 12.2236 125.163 12.1439 125.264 12.043C125.326 11.9811 125.373 11.9128 125.405 11.8379C125.438 11.763 125.454 11.6833 125.454 11.5986ZM127.783 10.3145C127.783 9.92057 127.83 9.55924 127.925 9.23047C128.019 8.89844 128.158 8.61361 128.34 8.37598C128.522 8.13835 128.745 7.9528 129.009 7.81934C129.276 7.68587 129.578 7.61914 129.917 7.61914C130.106 7.61914 130.282 7.63867 130.444 7.67773C130.61 7.7168 130.762 7.77539 130.898 7.85352C130.986 7.90234 131.069 7.95931 131.147 8.02441C131.226 8.08952 131.299 8.16113 131.367 8.23926L131.406 7.7168H132.236V15.0312H131.333V12.5215C131.255 12.6029 131.172 12.6761 131.084 12.7412C130.999 12.8063 130.907 12.8617 130.806 12.9072C130.679 12.9691 130.54 13.0163 130.391 13.0488C130.241 13.0814 130.08 13.0977 129.907 13.0977C129.572 13.0977 129.272 13.0293 129.009 12.8926C128.748 12.7559 128.527 12.5671 128.345 12.3262C128.162 12.0853 128.022 11.8021 127.925 11.4766C127.83 11.1478 127.783 10.7946 127.783 10.417V10.3145ZM128.687 10.417C128.687 10.6742 128.714 10.9199 128.77 11.1543C128.828 11.3887 128.916 11.5954 129.033 11.7744C129.15 11.9535 129.299 12.0967 129.478 12.2041C129.66 12.3083 129.876 12.3604 130.127 12.3604C130.267 12.3604 130.396 12.3441 130.513 12.3115C130.63 12.279 130.737 12.235 130.835 12.1797C130.939 12.1178 131.032 12.043 131.113 11.9551C131.195 11.8639 131.268 11.7646 131.333 11.6572V9.0498C131.271 8.94889 131.2 8.85775 131.118 8.77637C131.04 8.69173 130.952 8.61849 130.854 8.55664C130.754 8.49479 130.643 8.44759 130.522 8.41504C130.405 8.37923 130.277 8.36133 130.137 8.36133C129.886 8.36133 129.67 8.41504 129.487 8.52246C129.305 8.62988 129.155 8.77311 129.038 8.95215C128.918 9.13444 128.828 9.34277 128.77 9.57715C128.714 9.81152 128.687 10.0573 128.687 10.3145V10.417ZM137.437 13L137.383 12.2725C137.207 12.5329 136.987 12.7363 136.724 12.8828C136.46 13.026 136.156 13.0977 135.811 13.0977C135.534 13.0977 135.283 13.0553 135.059 12.9707C134.834 12.8828 134.642 12.7477 134.482 12.5654C134.323 12.3831 134.199 12.152 134.111 11.8721C134.027 11.5889 133.984 11.2503 133.984 10.8564V7.7168H134.888V10.8662C134.888 11.1527 134.91 11.3903 134.956 11.5791C135.002 11.7679 135.07 11.9176 135.161 12.0283C135.252 12.1423 135.363 12.222 135.493 12.2676C135.627 12.3132 135.78 12.3359 135.952 12.3359C136.154 12.3359 136.335 12.3132 136.494 12.2676C136.654 12.2188 136.792 12.152 136.909 12.0674C137.007 11.999 137.091 11.9176 137.163 11.8232C137.238 11.7256 137.3 11.6198 137.349 11.5059V7.7168H138.257V13H137.437ZM140.103 7.7168H142.803V12.2188H144.526V13H140.103V12.2188H141.899V8.50293H140.103V7.7168ZM141.782 6.33008C141.782 6.25195 141.794 6.17871 141.816 6.11035C141.842 6.04199 141.882 5.9834 141.934 5.93457C141.976 5.89225 142.03 5.8597 142.095 5.83691C142.163 5.81087 142.24 5.79785 142.324 5.79785C142.409 5.79785 142.484 5.81087 142.549 5.83691C142.614 5.8597 142.668 5.89225 142.71 5.93457C142.762 5.98014 142.801 6.03711 142.827 6.10547C142.853 6.17383 142.866 6.2487 142.866 6.33008C142.866 6.47656 142.821 6.59863 142.729 6.69629C142.638 6.79395 142.503 6.84277 142.324 6.84277C142.142 6.84277 142.005 6.79395 141.914 6.69629C141.826 6.59863 141.782 6.47656 141.782 6.33008ZM149.478 11.5986C149.478 11.4912 149.456 11.3952 149.414 11.3105C149.372 11.2227 149.3 11.1429 149.199 11.0713C149.098 10.9997 148.965 10.9346 148.799 10.876C148.633 10.8141 148.426 10.7588 148.179 10.71C147.876 10.6481 147.599 10.5732 147.349 10.4854C147.101 10.3975 146.89 10.2917 146.714 10.168C146.535 10.0475 146.396 9.90592 146.299 9.74316C146.201 9.57715 146.152 9.38509 146.152 9.16699C146.152 8.95215 146.203 8.75195 146.304 8.56641C146.405 8.3776 146.546 8.21322 146.729 8.07324C146.911 7.93327 147.127 7.82259 147.378 7.74121C147.632 7.65983 147.91 7.61914 148.213 7.61914C148.538 7.61914 148.831 7.66146 149.092 7.74609C149.352 7.83073 149.574 7.94792 149.756 8.09766C149.938 8.2474 150.078 8.42318 150.176 8.625C150.277 8.82357 150.327 9.03841 150.327 9.26953H149.424C149.424 9.1556 149.395 9.04492 149.336 8.9375C149.277 8.82682 149.196 8.72917 149.092 8.64453C148.988 8.5599 148.861 8.49154 148.711 8.43945C148.564 8.38737 148.398 8.36133 148.213 8.36133C148.021 8.36133 147.852 8.38249 147.705 8.4248C147.562 8.46712 147.443 8.52409 147.349 8.5957C147.251 8.66732 147.178 8.75033 147.129 8.84473C147.08 8.93913 147.056 9.03678 147.056 9.1377C147.056 9.24186 147.075 9.33464 147.114 9.41602C147.153 9.4974 147.222 9.57064 147.319 9.63574C147.414 9.70085 147.541 9.75944 147.7 9.81152C147.863 9.86361 148.068 9.91406 148.315 9.96289C148.641 10.0312 148.932 10.111 149.189 10.2021C149.447 10.29 149.663 10.3958 149.839 10.5195C150.015 10.6465 150.148 10.793 150.239 10.959C150.334 11.125 150.381 11.3171 150.381 11.5352C150.381 11.7695 150.327 11.9827 150.22 12.1748C150.116 12.3669 149.969 12.5312 149.78 12.668C149.591 12.8047 149.365 12.9105 149.102 12.9854C148.838 13.0602 148.55 13.0977 148.237 13.0977C147.879 13.0977 147.56 13.0505 147.28 12.9561C147 12.8584 146.764 12.7298 146.572 12.5703C146.377 12.4141 146.227 12.2318 146.123 12.0234C146.022 11.8151 145.972 11.5986 145.972 11.374H146.875C146.888 11.5596 146.937 11.7158 147.021 11.8428C147.109 11.9697 147.218 12.0723 147.349 12.1504C147.476 12.2285 147.617 12.2839 147.773 12.3164C147.93 12.349 148.084 12.3652 148.237 12.3652C148.478 12.3652 148.688 12.3376 148.867 12.2822C149.046 12.2236 149.186 12.1439 149.287 12.043C149.349 11.9811 149.396 11.9128 149.429 11.8379C149.461 11.763 149.478 11.6833 149.478 11.5986ZM152.876 8.50293C152.948 8.39551 153.027 8.29785 153.115 8.20996C153.203 8.11882 153.296 8.03906 153.394 7.9707C153.55 7.85677 153.721 7.77051 153.906 7.71191C154.095 7.65332 154.295 7.6224 154.507 7.61914C154.784 7.61914 155.034 7.65983 155.259 7.74121C155.487 7.81934 155.68 7.94303 155.84 8.1123C155.999 8.28158 156.121 8.49642 156.206 8.75684C156.294 9.014 156.338 9.31999 156.338 9.6748V13H155.435V9.66504C155.435 9.45671 155.41 9.27441 155.361 9.11816C155.312 8.95866 155.241 8.82682 155.146 8.72266C155.046 8.60872 154.919 8.52409 154.766 8.46875C154.613 8.41016 154.437 8.38249 154.238 8.38574C154.076 8.38574 153.921 8.40853 153.774 8.4541C153.628 8.49967 153.493 8.56478 153.369 8.64941C153.271 8.71452 153.18 8.79102 153.096 8.87891C153.014 8.96354 152.941 9.05794 152.876 9.16211V13H151.973V5.5H152.876V8.50293ZM158.403 15.1338C158.319 15.1338 158.219 15.124 158.105 15.1045C157.992 15.085 157.905 15.0687 157.847 15.0557L157.993 14.3184C158.075 14.3249 158.154 14.3298 158.232 14.333C158.314 14.3395 158.377 14.3428 158.423 14.3428C158.547 14.3428 158.659 14.3086 158.76 14.2402C158.864 14.1719 158.957 14.0905 159.038 13.9961C159.116 13.9017 159.183 13.804 159.238 13.7031C159.297 13.6022 159.342 13.5192 159.375 13.4541L159.736 12.751L157.461 7.7168H158.472L159.922 11.125L160.156 11.7646L160.405 11.1445L161.768 7.7168H162.778L160.098 13.8154C160.036 13.9521 159.956 14.097 159.858 14.25C159.764 14.403 159.648 14.5446 159.512 14.6748C159.375 14.805 159.215 14.9141 159.033 15.002C158.851 15.0898 158.641 15.1338 158.403 15.1338ZM173.501 11.5986C173.501 11.4912 173.48 11.3952 173.438 11.3105C173.395 11.2227 173.324 11.1429 173.223 11.0713C173.122 10.9997 172.988 10.9346 172.822 10.876C172.656 10.8141 172.45 10.7588 172.202 10.71C171.899 10.6481 171.623 10.5732 171.372 10.4854C171.125 10.3975 170.913 10.2917 170.737 10.168C170.558 10.0475 170.42 9.90592 170.322 9.74316C170.225 9.57715 170.176 9.38509 170.176 9.16699C170.176 8.95215 170.226 8.75195 170.327 8.56641C170.428 8.3776 170.57 8.21322 170.752 8.07324C170.934 7.93327 171.151 7.82259 171.401 7.74121C171.655 7.65983 171.934 7.61914 172.236 7.61914C172.562 7.61914 172.855 7.66146 173.115 7.74609C173.376 7.83073 173.597 7.94792 173.779 8.09766C173.962 8.2474 174.102 8.42318 174.199 8.625C174.3 8.82357 174.351 9.03841 174.351 9.26953H173.447C173.447 9.1556 173.418 9.04492 173.359 8.9375C173.301 8.82682 173.219 8.72917 173.115 8.64453C173.011 8.5599 172.884 8.49154 172.734 8.43945C172.588 8.38737 172.422 8.36133 172.236 8.36133C172.044 8.36133 171.875 8.38249 171.729 8.4248C171.585 8.46712 171.466 8.52409 171.372 8.5957C171.274 8.66732 171.201 8.75033 171.152 8.84473C171.104 8.93913 171.079 9.03678 171.079 9.1377C171.079 9.24186 171.099 9.33464 171.138 9.41602C171.177 9.4974 171.245 9.57064 171.343 9.63574C171.437 9.70085 171.564 9.75944 171.724 9.81152C171.886 9.86361 172.091 9.91406 172.339 9.96289C172.664 10.0312 172.956 10.111 173.213 10.2021C173.47 10.29 173.687 10.3958 173.862 10.5195C174.038 10.6465 174.172 10.793 174.263 10.959C174.357 11.125 174.404 11.3171 174.404 11.5352C174.404 11.7695 174.351 11.9827 174.243 12.1748C174.139 12.3669 173.993 12.5312 173.804 12.668C173.615 12.8047 173.389 12.9105 173.125 12.9854C172.861 13.0602 172.573 13.0977 172.261 13.0977C171.903 13.0977 171.584 13.0505 171.304 12.9561C171.024 12.8584 170.788 12.7298 170.596 12.5703C170.4 12.4141 170.251 12.2318 170.146 12.0234C170.046 11.8151 169.995 11.5986 169.995 11.374H170.898C170.911 11.5596 170.96 11.7158 171.045 11.8428C171.133 11.9697 171.242 12.0723 171.372 12.1504C171.499 12.2285 171.641 12.2839 171.797 12.3164C171.953 12.349 172.108 12.3652 172.261 12.3652C172.502 12.3652 172.712 12.3376 172.891 12.2822C173.07 12.2236 173.21 12.1439 173.311 12.043C173.372 11.9811 173.42 11.9128 173.452 11.8379C173.485 11.763 173.501 11.6833 173.501 11.5986ZM176.138 7.7168H178.838V12.2188H180.562V13H176.138V12.2188H177.935V8.50293H176.138V7.7168ZM177.817 6.33008C177.817 6.25195 177.829 6.17871 177.852 6.11035C177.878 6.04199 177.917 5.9834 177.969 5.93457C178.011 5.89225 178.065 5.8597 178.13 5.83691C178.198 5.81087 178.275 5.79785 178.359 5.79785C178.444 5.79785 178.519 5.81087 178.584 5.83691C178.649 5.8597 178.703 5.89225 178.745 5.93457C178.797 5.98014 178.836 6.03711 178.862 6.10547C178.888 6.17383 178.901 6.2487 178.901 6.33008C178.901 6.47656 178.856 6.59863 178.765 6.69629C178.674 6.79395 178.538 6.84277 178.359 6.84277C178.177 6.84277 178.04 6.79395 177.949 6.69629C177.861 6.59863 177.817 6.47656 177.817 6.33008ZM184.141 6.4375V7.7168H186.152V8.41504H184.141V11.2861C184.141 11.4912 184.167 11.6605 184.219 11.7939C184.271 11.9274 184.342 12.0332 184.434 12.1113C184.525 12.1927 184.629 12.2497 184.746 12.2822C184.867 12.3148 184.993 12.3311 185.127 12.3311C185.225 12.3311 185.326 12.3262 185.43 12.3164C185.534 12.3034 185.636 12.2887 185.737 12.2725C185.835 12.2562 185.926 12.2399 186.011 12.2236C186.099 12.2041 186.17 12.1878 186.226 12.1748L186.353 12.8145C186.278 12.86 186.187 12.9007 186.079 12.9365C185.972 12.9691 185.854 12.9967 185.728 13.0195C185.601 13.0456 185.465 13.0651 185.322 13.0781C185.182 13.0911 185.042 13.0977 184.902 13.0977C184.668 13.0977 184.448 13.0651 184.243 13C184.041 12.9316 183.866 12.8242 183.716 12.6777C183.566 12.5345 183.447 12.349 183.359 12.1211C183.275 11.89 183.232 11.6117 183.232 11.2861V8.41504H181.846V7.7168H183.232V6.4375H184.141ZM190.146 6.4375V7.7168H192.158V8.41504H190.146V11.2861C190.146 11.4912 190.173 11.6605 190.225 11.7939C190.277 11.9274 190.348 12.0332 190.439 12.1113C190.531 12.1927 190.635 12.2497 190.752 12.2822C190.872 12.3148 190.999 12.3311 191.133 12.3311C191.23 12.3311 191.331 12.3262 191.436 12.3164C191.54 12.3034 191.642 12.2887 191.743 12.2725C191.841 12.2562 191.932 12.2399 192.017 12.2236C192.104 12.2041 192.176 12.1878 192.231 12.1748L192.358 12.8145C192.284 12.86 192.192 12.9007 192.085 12.9365C191.978 12.9691 191.86 12.9967 191.733 13.0195C191.606 13.0456 191.471 13.0651 191.328 13.0781C191.188 13.0911 191.048 13.0977 190.908 13.0977C190.674 13.0977 190.454 13.0651 190.249 13C190.047 12.9316 189.871 12.8242 189.722 12.6777C189.572 12.5345 189.453 12.349 189.365 12.1211C189.281 11.89 189.238 11.6117 189.238 11.2861V8.41504H187.852V7.7168H189.238V6.4375H190.146ZM194.155 7.7168H196.855V12.2188H198.579V13H194.155V12.2188H195.952V8.50293H194.155V7.7168ZM195.835 6.33008C195.835 6.25195 195.846 6.17871 195.869 6.11035C195.895 6.04199 195.934 5.9834 195.986 5.93457C196.029 5.89225 196.082 5.8597 196.147 5.83691C196.216 5.81087 196.292 5.79785 196.377 5.79785C196.462 5.79785 196.536 5.81087 196.602 5.83691C196.667 5.8597 196.72 5.89225 196.763 5.93457C196.815 5.98014 196.854 6.03711 196.88 6.10547C196.906 6.17383 196.919 6.2487 196.919 6.33008C196.919 6.47656 196.873 6.59863 196.782 6.69629C196.691 6.79395 196.556 6.84277 196.377 6.84277C196.195 6.84277 196.058 6.79395 195.967 6.69629C195.879 6.59863 195.835 6.47656 195.835 6.33008ZM200.02 13V7.7168H200.83L200.894 8.49805C200.972 8.38737 201.056 8.28646 201.147 8.19531C201.242 8.10091 201.341 8.01953 201.445 7.95117C201.602 7.84701 201.771 7.76725 201.953 7.71191C202.139 7.65332 202.334 7.6224 202.539 7.61914C202.816 7.61914 203.066 7.6582 203.291 7.73633C203.519 7.81445 203.713 7.93652 203.872 8.10254C204.032 8.26855 204.154 8.48014 204.238 8.7373C204.326 8.99121 204.37 9.29395 204.37 9.64551V13H203.467V9.66504C203.467 9.43066 203.441 9.2321 203.389 9.06934C203.337 8.90658 203.26 8.77474 203.159 8.67383C203.055 8.57292 202.928 8.49967 202.778 8.4541C202.632 8.40853 202.463 8.38574 202.271 8.38574C202.104 8.38574 201.95 8.41016 201.807 8.45898C201.663 8.50456 201.532 8.56803 201.411 8.64941C201.313 8.72103 201.222 8.80404 201.138 8.89844C201.056 8.99284 200.985 9.09701 200.923 9.21094V13H200.02ZM205.859 10.3145C205.859 9.92057 205.907 9.55924 206.001 9.23047C206.099 8.89844 206.239 8.61361 206.421 8.37598C206.603 8.13835 206.825 7.9528 207.085 7.81934C207.345 7.68587 207.64 7.61914 207.969 7.61914C208.18 7.61914 208.374 7.64355 208.55 7.69238C208.729 7.74121 208.89 7.81283 209.033 7.90723C209.111 7.95605 209.185 8.01302 209.253 8.07812C209.325 8.14323 209.391 8.21484 209.453 8.29297L209.497 7.7168H210.317V12.8877C210.317 13.236 210.262 13.5452 210.151 13.8154C210.044 14.0856 209.893 14.3151 209.697 14.5039C209.499 14.6927 209.263 14.8359 208.989 14.9336C208.716 15.0312 208.413 15.0801 208.081 15.0801C207.944 15.0801 207.788 15.0638 207.612 15.0312C207.437 15.002 207.259 14.9515 207.08 14.8799C206.898 14.8115 206.722 14.7188 206.553 14.6016C206.387 14.4844 206.243 14.3395 206.123 14.167L206.592 13.625C206.702 13.7585 206.816 13.8708 206.934 13.9619C207.051 14.0563 207.17 14.1312 207.29 14.1865C207.41 14.2419 207.531 14.2809 207.651 14.3037C207.772 14.3298 207.892 14.3428 208.013 14.3428C208.228 14.3428 208.421 14.3118 208.594 14.25C208.766 14.1882 208.914 14.097 209.038 13.9766C209.159 13.8594 209.251 13.7129 209.316 13.5371C209.382 13.3613 209.414 13.1595 209.414 12.9316V12.4775C209.346 12.5557 209.272 12.6273 209.194 12.6924C209.119 12.7575 209.038 12.8145 208.95 12.8633C208.813 12.9382 208.662 12.9951 208.496 13.0342C208.33 13.0765 208.151 13.0977 207.959 13.0977C207.637 13.0977 207.345 13.0293 207.085 12.8926C206.825 12.7559 206.605 12.5671 206.426 12.3262C206.243 12.0853 206.104 11.8021 206.006 11.4766C205.908 11.1478 205.859 10.7946 205.859 10.417V10.3145ZM206.763 10.417C206.763 10.6742 206.789 10.9183 206.841 11.1494C206.896 11.3805 206.982 11.584 207.1 11.7598C207.214 11.9355 207.36 12.0755 207.539 12.1797C207.718 12.2806 207.933 12.3311 208.184 12.3311C208.34 12.3311 208.48 12.3132 208.604 12.2773C208.73 12.2383 208.844 12.1846 208.945 12.1162C209.043 12.0479 209.131 11.9665 209.209 11.8721C209.287 11.7777 209.355 11.6735 209.414 11.5596V9.1377C209.355 9.02702 209.287 8.92611 209.209 8.83496C209.131 8.74382 209.041 8.66406 208.94 8.5957C208.84 8.5306 208.727 8.48014 208.604 8.44434C208.48 8.40527 208.343 8.38574 208.193 8.38574C207.939 8.38574 207.721 8.43783 207.539 8.54199C207.36 8.64616 207.214 8.78613 207.1 8.96191C206.982 9.14095 206.896 9.34766 206.841 9.58203C206.789 9.81315 206.763 10.0573 206.763 10.3145V10.417ZM217.783 10.3096C217.783 9.92871 217.839 9.57552 217.949 9.25C218.06 8.92122 218.219 8.63639 218.428 8.39551C218.633 8.15462 218.883 7.96582 219.18 7.8291C219.476 7.68913 219.81 7.61914 220.181 7.61914C220.555 7.61914 220.89 7.68913 221.187 7.8291C221.486 7.96582 221.74 8.15462 221.948 8.39551C222.153 8.63639 222.311 8.92122 222.422 9.25C222.533 9.57552 222.588 9.92871 222.588 10.3096V10.417C222.588 10.7979 222.533 11.151 222.422 11.4766C222.311 11.8021 222.153 12.0853 221.948 12.3262C221.74 12.5671 221.488 12.7559 221.191 12.8926C220.895 13.0293 220.562 13.0977 220.19 13.0977C219.816 13.0977 219.479 13.0293 219.18 12.8926C218.883 12.7559 218.633 12.5671 218.428 12.3262C218.219 12.0853 218.06 11.8021 217.949 11.4766C217.839 11.151 217.783 10.7979 217.783 10.417V10.3096ZM218.687 10.417C218.687 10.6774 218.717 10.9264 218.779 11.1641C218.841 11.3984 218.936 11.6051 219.062 11.7842C219.186 11.9632 219.342 12.1048 219.531 12.209C219.72 12.3132 219.94 12.3652 220.19 12.3652C220.438 12.3652 220.654 12.3132 220.84 12.209C221.029 12.1048 221.187 11.9632 221.313 11.7842C221.437 11.6051 221.53 11.3984 221.592 11.1641C221.654 10.9264 221.685 10.6774 221.685 10.417V10.3096C221.685 10.0524 221.652 9.80664 221.587 9.57227C221.525 9.33464 221.432 9.1263 221.309 8.94727C221.182 8.76823 221.024 8.62663 220.835 8.52246C220.649 8.41504 220.431 8.36133 220.181 8.36133C219.93 8.36133 219.712 8.41504 219.526 8.52246C219.341 8.62663 219.186 8.76823 219.062 8.94727C218.936 9.1263 218.841 9.33464 218.779 9.57227C218.717 9.80664 218.687 10.0524 218.687 10.3096V10.417ZM224.043 13V7.7168H224.854L224.917 8.49805C224.995 8.38737 225.08 8.28646 225.171 8.19531C225.265 8.10091 225.365 8.01953 225.469 7.95117C225.625 7.84701 225.794 7.76725 225.977 7.71191C226.162 7.65332 226.357 7.6224 226.562 7.61914C226.839 7.61914 227.09 7.6582 227.314 7.73633C227.542 7.81445 227.736 7.93652 227.896 8.10254C228.055 8.26855 228.177 8.48014 228.262 8.7373C228.35 8.99121 228.394 9.29395 228.394 9.64551V13H227.49V9.66504C227.49 9.43066 227.464 9.2321 227.412 9.06934C227.36 8.90658 227.284 8.77474 227.183 8.67383C227.078 8.57292 226.951 8.49967 226.802 8.4541C226.655 8.40853 226.486 8.38574 226.294 8.38574C226.128 8.38574 225.973 8.41016 225.83 8.45898C225.687 8.50456 225.555 8.56803 225.435 8.64941C225.337 8.72103 225.246 8.80404 225.161 8.89844C225.08 8.99284 225.008 9.09701 224.946 9.21094V13H224.043ZM238.193 6.4375V7.7168H240.205V8.41504H238.193V11.2861C238.193 11.4912 238.219 11.6605 238.271 11.7939C238.324 11.9274 238.395 12.0332 238.486 12.1113C238.577 12.1927 238.682 12.2497 238.799 12.2822C238.919 12.3148 239.046 12.3311 239.18 12.3311C239.277 12.3311 239.378 12.3262 239.482 12.3164C239.587 12.3034 239.689 12.2887 239.79 12.2725C239.888 12.2562 239.979 12.2399 240.063 12.2236C240.151 12.2041 240.223 12.1878 240.278 12.1748L240.405 12.8145C240.33 12.86 240.239 12.9007 240.132 12.9365C240.024 12.9691 239.907 12.9967 239.78 13.0195C239.653 13.0456 239.518 13.0651 239.375 13.0781C239.235 13.0911 239.095 13.0977 238.955 13.0977C238.721 13.0977 238.501 13.0651 238.296 13C238.094 12.9316 237.918 12.8242 237.769 12.6777C237.619 12.5345 237.5 12.349 237.412 12.1211C237.327 11.89 237.285 11.6117 237.285 11.2861V8.41504H235.898V7.7168H237.285V6.4375H238.193ZM241.807 10.3096C241.807 9.92871 241.862 9.57552 241.973 9.25C242.083 8.92122 242.243 8.63639 242.451 8.39551C242.656 8.15462 242.907 7.96582 243.203 7.8291C243.499 7.68913 243.833 7.61914 244.204 7.61914C244.578 7.61914 244.914 7.68913 245.21 7.8291C245.509 7.96582 245.763 8.15462 245.972 8.39551C246.177 8.63639 246.335 8.92122 246.445 9.25C246.556 9.57552 246.611 9.92871 246.611 10.3096V10.417C246.611 10.7979 246.556 11.151 246.445 11.4766C246.335 11.8021 246.177 12.0853 245.972 12.3262C245.763 12.5671 245.511 12.7559 245.215 12.8926C244.919 13.0293 244.585 13.0977 244.214 13.0977C243.84 13.0977 243.503 13.0293 243.203 12.8926C242.907 12.7559 242.656 12.5671 242.451 12.3262C242.243 12.0853 242.083 11.8021 241.973 11.4766C241.862 11.151 241.807 10.7979 241.807 10.417V10.3096ZM242.71 10.417C242.71 10.6774 242.741 10.9264 242.803 11.1641C242.865 11.3984 242.959 11.6051 243.086 11.7842C243.21 11.9632 243.366 12.1048 243.555 12.209C243.743 12.3132 243.963 12.3652 244.214 12.3652C244.461 12.3652 244.678 12.3132 244.863 12.209C245.052 12.1048 245.21 11.9632 245.337 11.7842C245.461 11.6051 245.553 11.3984 245.615 11.1641C245.677 10.9264 245.708 10.6774 245.708 10.417V10.3096C245.708 10.0524 245.675 9.80664 245.61 9.57227C245.549 9.33464 245.456 9.1263 245.332 8.94727C245.205 8.76823 245.047 8.62663 244.858 8.52246C244.673 8.41504 244.455 8.36133 244.204 8.36133C243.953 8.36133 243.735 8.41504 243.55 8.52246C243.364 8.62663 243.21 8.76823 243.086 8.94727C242.959 9.1263 242.865 9.33464 242.803 9.57227C242.741 9.80664 242.71 10.0524 242.71 10.3096V10.417ZM248.062 15.0312V7.7168H248.887L248.931 8.29297C249.002 8.20182 249.08 8.12044 249.165 8.04883C249.25 7.97396 249.341 7.91048 249.438 7.8584C249.575 7.78027 249.727 7.72168 249.893 7.68262C250.062 7.6403 250.243 7.61914 250.435 7.61914C250.773 7.61914 251.073 7.68587 251.333 7.81934C251.593 7.9528 251.812 8.13835 251.987 8.37598C252.163 8.61361 252.297 8.89844 252.388 9.23047C252.479 9.55924 252.524 9.92057 252.524 10.3145V10.417C252.524 10.7946 252.479 11.1478 252.388 11.4766C252.297 11.8021 252.163 12.0853 251.987 12.3262C251.812 12.5671 251.593 12.7559 251.333 12.8926C251.076 13.0293 250.781 13.0977 250.449 13.0977C250.247 13.0977 250.059 13.0765 249.883 13.0342C249.71 12.9919 249.554 12.9316 249.414 12.8535C249.329 12.8047 249.25 12.751 249.175 12.6924C249.1 12.6305 249.03 12.5638 248.965 12.4922V15.0312H248.062ZM251.621 10.3145C251.621 10.0573 251.592 9.81315 251.533 9.58203C251.478 9.34766 251.392 9.14095 251.274 8.96191C251.154 8.78613 251.003 8.64616 250.82 8.54199C250.638 8.43783 250.42 8.38574 250.166 8.38574C250.026 8.38574 249.896 8.40202 249.775 8.43457C249.658 8.46712 249.552 8.51432 249.458 8.57617C249.354 8.63802 249.261 8.71452 249.18 8.80566C249.098 8.89681 249.027 8.99772 248.965 9.1084V11.6523C249.02 11.75 249.084 11.8411 249.155 11.9258C249.227 12.0104 249.308 12.082 249.399 12.1406C249.504 12.209 249.619 12.2627 249.746 12.3018C249.876 12.3408 250.02 12.3604 250.176 12.3604C250.426 12.3604 250.643 12.3083 250.825 12.2041C251.007 12.0967 251.157 11.9535 251.274 11.7744C251.392 11.5954 251.478 11.3887 251.533 11.1543C251.592 10.9199 251.621 10.6742 251.621 10.417V10.3145ZM259.824 10.3096C259.824 9.92871 259.88 9.57552 259.99 9.25C260.101 8.92122 260.26 8.63639 260.469 8.39551C260.674 8.15462 260.924 7.96582 261.221 7.8291C261.517 7.68913 261.851 7.61914 262.222 7.61914C262.596 7.61914 262.931 7.68913 263.228 7.8291C263.527 7.96582 263.781 8.15462 263.989 8.39551C264.194 8.63639 264.352 8.92122 264.463 9.25C264.574 9.57552 264.629 9.92871 264.629 10.3096V10.417C264.629 10.7979 264.574 11.151 264.463 11.4766C264.352 11.8021 264.194 12.0853 263.989 12.3262C263.781 12.5671 263.529 12.7559 263.232 12.8926C262.936 13.0293 262.603 13.0977 262.231 13.0977C261.857 13.0977 261.52 13.0293 261.221 12.8926C260.924 12.7559 260.674 12.5671 260.469 12.3262C260.26 12.0853 260.101 11.8021 259.99 11.4766C259.88 11.151 259.824 10.7979 259.824 10.417V10.3096ZM260.728 10.417C260.728 10.6774 260.758 10.9264 260.82 11.1641C260.882 11.3984 260.977 11.6051 261.104 11.7842C261.227 11.9632 261.383 12.1048 261.572 12.209C261.761 12.3132 261.981 12.3652 262.231 12.3652C262.479 12.3652 262.695 12.3132 262.881 12.209C263.07 12.1048 263.228 11.9632 263.354 11.7842C263.478 11.6051 263.571 11.3984 263.633 11.1641C263.695 10.9264 263.726 10.6774 263.726 10.417V10.3096C263.726 10.0524 263.693 9.80664 263.628 9.57227C263.566 9.33464 263.473 9.1263 263.35 8.94727C263.223 8.76823 263.065 8.62663 262.876 8.52246C262.69 8.41504 262.472 8.36133 262.222 8.36133C261.971 8.36133 261.753 8.41504 261.567 8.52246C261.382 8.62663 261.227 8.76823 261.104 8.94727C260.977 9.1263 260.882 9.33464 260.82 9.57227C260.758 9.80664 260.728 10.0524 260.728 10.3096V10.417ZM267.432 13V8.41504H265.977V7.7168H267.432V7.3457C267.432 7.00716 267.48 6.71094 267.578 6.45703C267.679 6.19987 267.821 5.98503 268.003 5.8125C268.182 5.63997 268.398 5.50977 268.652 5.42188C268.906 5.33398 269.189 5.29004 269.502 5.29004C269.632 5.29004 269.761 5.29818 269.888 5.31445C270.015 5.32747 270.14 5.34538 270.264 5.36816C270.345 5.38444 270.426 5.40234 270.508 5.42188C270.589 5.43815 270.672 5.45768 270.757 5.48047L270.649 6.22754C270.516 6.18197 270.36 6.1429 270.181 6.11035C270.005 6.07454 269.816 6.05664 269.614 6.05664C269.409 6.05664 269.227 6.08268 269.067 6.13477C268.911 6.18359 268.781 6.25846 268.677 6.35938C268.566 6.46354 268.481 6.59863 268.423 6.76465C268.368 6.93066 268.34 7.12435 268.34 7.3457V7.7168H270.376V8.41504H268.34V13H267.432ZM281.567 13C281.532 12.9316 281.502 12.847 281.479 12.7461C281.46 12.6419 281.445 12.5345 281.436 12.4238C281.344 12.515 281.242 12.6012 281.128 12.6826C281.017 12.764 280.895 12.8356 280.762 12.8975C280.625 12.9593 280.48 13.0081 280.327 13.0439C280.174 13.0798 280.011 13.0977 279.839 13.0977C279.559 13.0977 279.305 13.057 279.077 12.9756C278.853 12.8942 278.662 12.7835 278.506 12.6436C278.346 12.5068 278.223 12.3441 278.135 12.1553C278.05 11.9632 278.008 11.7565 278.008 11.5352C278.008 11.2454 278.065 10.9915 278.179 10.7734C278.296 10.5553 278.46 10.373 278.672 10.2266C278.883 10.0833 279.137 9.97591 279.434 9.9043C279.733 9.83268 280.067 9.79688 280.435 9.79688H281.421V9.38184C281.421 9.22233 281.392 9.0791 281.333 8.95215C281.274 8.8252 281.191 8.71615 281.084 8.625C280.977 8.53711 280.845 8.46875 280.688 8.41992C280.535 8.37109 280.363 8.34668 280.171 8.34668C279.992 8.34668 279.831 8.36947 279.688 8.41504C279.548 8.46061 279.429 8.52083 279.331 8.5957C279.233 8.67057 279.157 8.76009 279.102 8.86426C279.049 8.96517 279.023 9.07096 279.023 9.18164H278.115C278.118 8.98958 278.167 8.80078 278.262 8.61523C278.359 8.42969 278.499 8.26204 278.682 8.1123C278.861 7.96582 279.079 7.84701 279.336 7.75586C279.596 7.66471 279.891 7.61914 280.22 7.61914C280.519 7.61914 280.798 7.65658 281.055 7.73145C281.312 7.80306 281.535 7.91211 281.724 8.05859C281.909 8.20833 282.056 8.39388 282.163 8.61523C282.271 8.83659 282.324 9.09538 282.324 9.3916V11.8477C282.324 12.0234 282.34 12.2106 282.373 12.4092C282.406 12.6045 282.451 12.7754 282.51 12.9219V13H281.567ZM279.971 12.3115C280.146 12.3115 280.311 12.2887 280.464 12.2432C280.617 12.1976 280.757 12.1374 280.884 12.0625C281.007 11.9876 281.115 11.903 281.206 11.8086C281.297 11.7109 281.369 11.61 281.421 11.5059V10.4365H280.581C280.269 10.4365 279.995 10.4642 279.761 10.5195C279.53 10.5716 279.346 10.653 279.209 10.7637C279.111 10.8418 279.036 10.9346 278.984 11.042C278.936 11.1494 278.911 11.2715 278.911 11.4082C278.911 11.5384 278.932 11.6589 278.975 11.7695C279.02 11.8802 279.087 11.9746 279.175 12.0527C279.263 12.1341 279.373 12.1976 279.507 12.2432C279.64 12.2887 279.795 12.3115 279.971 12.3115Z" fill="#D8D8D8"/>
<path d="M15.4118 13.75C15.755 13.75 16.0842 13.8817 16.3268 14.1161C16.5695 14.3505 16.7059 14.6685 16.7059 15C16.7059 14.6685 16.8422 14.3505 17.0849 14.1161C17.3276 13.8817 17.6568 13.75 18 13.75C17.6568 13.75 17.3276 13.6183 17.0849 13.3839C16.8422 13.1495 16.7059 12.8315 16.7059 12.5C16.7059 12.8315 16.5695 13.1495 16.3268 13.3839C16.0842 13.6183 15.755 13.75 15.4118 13.75ZM15.4118 6.25C15.755 6.25 16.0842 6.3817 16.3268 6.61612C16.5695 6.85054 16.7059 7.16848 16.7059 7.5C16.7059 7.16848 16.8422 6.85054 17.0849 6.61612C17.3276 6.3817 17.6568 6.25 18 6.25C17.6568 6.25 17.3276 6.1183 17.0849 5.88388C16.8422 5.64946 16.7059 5.33152 16.7059 5C16.7059 5.33152 16.5695 5.64946 16.3268 5.88388C16.0842 6.1183 15.755 6.25 15.4118 6.25ZM10.8824 13.75C10.8824 12.7554 11.2914 11.8016 12.0195 11.0983C12.7476 10.3951 13.735 10 14.7647 10C13.735 10 12.7476 9.60491 12.0195 8.90165C11.2914 8.19839 10.8824 7.24456 10.8824 6.25C10.8824 7.24456 10.4733 8.19839 9.74524 8.90165C9.01716 9.60491 8.02966 10 7 10C8.02966 10 9.01716 10.3951 9.74524 11.0983C10.4733 11.8016 10.8824 12.7554 10.8824 13.75Z" stroke="white" stroke-width="0.5" stroke-linecap="round" stroke-linejoin="round"/>
</svg>
