<svg width="17" height="14" viewBox="0 0 17 14" fill="none" xmlns="http://www.w3.org/2000/svg">
<path fill-rule="evenodd" clip-rule="evenodd" d="M15.8948 4.2348L12.7128 1.05282C12.5176 0.857557 12.201 0.857557 12.0057 1.05282C11.8105 1.24808 11.8105 1.56466 12.0057 1.75993L14.3342 4.08835H12.1798C9.69452 4.08835 7.6798 6.10307 7.6798 8.58835V8.96518C7.6798 10.8982 6.1128 12.4652 4.1798 12.4652H1.57987V13.4652H4.1798C6.66508 13.4652 8.6798 11.4505 8.6798 8.96518V8.58835C8.6798 6.65536 10.2468 5.08835 12.1798 5.08835H14.3342L12.0057 7.41678C11.8105 7.61204 11.8105 7.92862 12.0057 8.12389C12.201 8.31915 12.5176 8.31915 12.7128 8.12389L15.8948 4.94191C16.0901 4.74664 16.0901 4.43006 15.8948 4.2348ZM0.615121 13.42C0.86747 13.42 1.07204 13.2154 1.07204 12.9631C1.07204 12.7107 0.86747 12.5062 0.615121 12.5062C0.362772 12.5062 0.158203 12.7107 0.158203 12.9631C0.158203 13.2154 0.362772 13.42 0.615121 13.42Z" fill="white"/>
</svg>
