<svg width="20" height="20" viewBox="0 0 20 20" fill="none" xmlns="http://www.w3.org/2000/svg">
<path d="M15.0003 3.99998C15.2654 4.00032 15.5196 4.10579 15.707 4.29329C15.8945 4.48063 15.9999 4.73494 16.0003 4.99993V15.0003C15.9999 15.2653 15.8945 15.5196 15.707 15.7069C15.5196 15.8945 15.2653 15.9999 15.0003 16.0003H5C4.73499 15.9999 4.4807 15.8945 4.29337 15.7069C4.10587 15.5196 4.0004 15.2653 4.00006 15.0003V4.99993C4.0004 4.73491 4.10587 4.48062 4.29337 4.29329C4.4807 4.10579 4.73502 4.00032 5 3.99998H15.0003ZM15.0003 3.00003H5C4.46964 3.00003 3.96088 3.21064 3.58588 3.58581C3.21071 3.96081 3.00011 4.46957 3.00011 4.99994V15.0003C3.00011 15.5307 3.21071 16.0394 3.58588 16.4144C3.96088 16.7896 4.46964 17.0002 5 17.0002H15.0003C15.5307 17.0002 16.0395 16.7896 16.4145 16.4144C16.7896 16.0394 17.0002 15.5307 17.0002 15.0003V4.99994C17.0002 4.46957 16.7896 3.96081 16.4145 3.58581C16.0395 3.21064 15.5307 3.00003 15.0003 3.00003ZM1.99999 3.49992C2.00015 3.36733 1.94742 3.2401 1.85367 3.14635C1.75992 3.05259 1.63269 2.99986 1.50009 3.00003H0.499974C0.223912 3.00003 8.56677e-05 3.22386 8.56677e-05 3.49992C8.56677e-05 3.77615 0.223917 3.99998 0.499974 3.99998H1.50009C1.63269 3.99998 1.75992 3.94741 1.85367 3.85366C1.94742 3.75991 2.00015 3.63268 1.99999 3.49992ZM4.00005 1.49984V0.499891C4.00005 0.223828 3.77622 0 3.49999 0C3.22393 0 3.00011 0.223832 3.00011 0.499891V1.50001C3.00011 1.77608 3.22394 1.99991 3.49999 1.99991C3.77622 1.99991 4.00005 1.7759 4.00005 1.49984ZM17 1.49984V0.499891C17 0.223828 16.7762 0 16.5001 0C16.2239 0 16 0.223832 16 0.499891V1.50001C16 1.77608 16.2239 1.99991 16.5001 1.99991C16.7762 1.99991 17 1.7759 17 1.49984ZM20 3.49992C20.0002 3.36733 19.9474 3.2401 19.8537 3.14635C19.7599 3.05259 19.6327 2.99986 19.5001 3.00003H18.5C18.2239 3.00003 18.0001 3.22386 18.0001 3.49992C18.0001 3.77615 18.2239 3.99998 18.5 3.99998H19.5001C19.6327 3.99998 19.7599 3.94741 19.8537 3.85366C19.9474 3.75991 20.0002 3.63268 20 3.49992ZM20 16.4999C20.0002 16.3671 19.9474 16.2401 19.8537 16.1463C19.7599 16.0526 19.6327 16 19.5001 16H18.5C18.2239 16 18.0001 16.2238 18.0001 16.5001C18.0001 16.7761 18.2239 17 18.5 17H19.5001C19.6327 17.0001 19.7599 16.9474 19.8537 16.8536C19.9474 16.7599 20.0002 16.6325 20 16.4999ZM17 19.4999V18.5C17 18.2239 16.7762 18.0001 16.5001 18.0001C16.2239 18.0001 16 18.2239 16 18.5V19.5001C16 19.7762 16.2239 20 16.5001 20C16.7762 20 17 19.776 17 19.4999ZM1.9999 16.4999C2.00007 16.3671 1.94733 16.2401 1.85358 16.1463C1.75983 16.0526 1.6326 16 1.50001 16H0.499888C0.223827 16 0 16.2238 0 16.5001C0 16.7761 0.223831 17 0.499888 17H1.50001C1.6326 17.0001 1.75983 16.9474 1.85358 16.8536C1.94733 16.7599 2.00007 16.6325 1.9999 16.4999ZM3.99997 19.4999V18.5C3.99997 18.2239 3.77614 18.0001 3.49991 18.0001C3.22385 18.0001 3.00002 18.2239 3.00002 18.5V19.5001C3.00002 19.7762 3.22385 20 3.49991 20C3.77614 20 3.99997 19.776 3.99997 19.4999Z" fill="white"/>
</svg>
