<svg width="16" height="18" viewBox="0 0 16 18" fill="none" xmlns="http://www.w3.org/2000/svg">
<path d="M14.2281 5.14282C13.9054 5.14282 13.6027 5.22648 13.3423 5.37298V3.00003C13.3423 2.05456 12.5472 1.28572 11.5704 1.28572C11.2434 1.28572 10.9362 1.37196 10.6733 1.52219C10.5746 0.666689 9.82287 0 8.91268 0C7.93548 0 7.14082 0.768847 7.14082 1.71431V2.80157C6.87994 2.65506 6.57769 2.57141 6.25497 2.57141C5.27776 2.57141 4.48311 3.34026 4.48311 4.28572V10.8615L3.02448 9.45026C2.35443 8.80238 1.18735 8.80238 0.519089 9.45026C0.184206 9.77383 0 10.204 0 10.6623C0 11.1047 0.172189 11.5216 0.485716 11.8413L3.5059 16.2678C4.24596 17.3526 5.4897 18 6.83279 18H12.0134C14.2118 18 16 16.2699 16 14.1429V6.85741C16 5.91195 15.2049 5.1431 14.2281 5.1431L14.2281 5.14282ZM15.114 14.1427C15.114 15.7967 13.7228 17.1427 12.0132 17.1427H6.8326C5.78789 17.1427 4.82079 16.6392 4.2449 15.7955L1.20174 11.3352C1.18528 11.3109 1.1663 11.2887 1.14509 11.2682C0.977643 11.1062 0.885546 10.8911 0.885546 10.6622C0.885546 10.4333 0.977647 10.2181 1.14509 10.0562C1.31253 9.89423 1.53486 9.80512 1.7714 9.80512C2.00793 9.80512 2.23042 9.89424 2.3977 10.0562L4.61242 12.199C4.73996 12.322 4.93039 12.3593 5.09517 12.292C5.26083 12.2258 5.3685 12.0693 5.3685 11.8961L5.36895 4.28552C5.36895 3.81301 5.76643 3.42844 6.2548 3.42844C6.74318 3.42844 7.14066 3.81301 7.14066 4.28552V8.99962C7.14066 9.23653 7.3388 9.42824 7.58366 9.42824C7.82852 9.42824 8.02666 9.23653 8.02666 8.99962V1.71412C8.02666 1.24161 8.42414 0.857042 8.91251 0.857042C9.40134 0.857042 9.79837 1.24161 9.79837 1.71412V8.99962C9.79837 9.23653 9.99651 9.42824 10.2414 9.42824C10.4862 9.42824 10.6844 9.23653 10.6844 8.99962V2.99982C10.6844 2.52731 11.0814 2.14274 11.5702 2.14274C12.0591 2.14274 12.4561 2.52731 12.4561 2.99982V8.99962C12.4561 9.23653 12.6542 9.42824 12.8991 9.42824C13.1439 9.42824 13.3421 9.23653 13.3421 8.99962V6.85684C13.3421 6.38433 13.7391 5.99976 14.2279 5.99976C14.7168 5.99976 15.1138 6.38433 15.1138 6.85684L15.114 14.1427Z" fill="white"/>
</svg>
