<svg width="33" height="28" viewBox="0 0 33 28" fill="none" xmlns="http://www.w3.org/2000/svg">
<rect x="0.25" y="0.25" width="32.5" height="27.5" rx="6.08552" fill="#1B1B1B" stroke="#2E2E2E" stroke-width="0.5"/>
<path d="M15.018 14.6062C13.3558 14.6062 12 15.962 12 17.6241V18.0571C12 18.7665 12.5831 19.3496 13.2925 19.3496H19.3316C20.041 19.3496 20.6241 18.7665 20.6241 18.0571V17.6241C20.6241 15.962 19.2683 14.6062 17.6062 14.6062H15.018ZM15.018 15.4689H17.6062C18.8022 15.4689 19.7614 16.4281 19.7614 17.6241V18.0571C19.7614 18.3004 19.5749 18.4869 19.3316 18.4869H13.2925C13.0492 18.4869 12.8627 18.3004 12.8627 18.0571V17.6241C12.8627 16.4281 13.822 15.4689 15.018 15.4689Z" fill="white"/>
<path d="M16.3138 9C14.8898 9 13.7256 10.1642 13.7256 11.5882C13.7256 13.0121 14.8898 14.1764 16.3138 14.1764C17.7377 14.1764 18.8988 13.0121 18.8988 11.5882C18.8988 10.1642 17.7377 9 16.3138 9ZM16.3138 9.86273C17.2716 9.86273 18.0361 10.6304 18.0361 11.5882C18.0361 12.546 17.2716 13.3137 16.3138 13.3137C15.356 13.3137 14.5883 12.546 14.5883 11.5882C14.5883 10.6304 15.356 9.86273 16.3138 9.86273Z" fill="white"/>
<path d="M21.057 10.2925C21.0001 10.2923 20.9436 10.3033 20.891 10.325C20.8384 10.3467 20.7906 10.3786 20.7503 10.4188C20.7101 10.4591 20.6782 10.5069 20.6565 10.5595C20.6348 10.6121 20.6238 10.6685 20.624 10.7255V12.4509C20.6242 12.5076 20.6356 12.5636 20.6574 12.6159C20.6793 12.6682 20.7112 12.7156 20.7515 12.7555C20.7917 12.7954 20.8393 12.827 20.8918 12.8485C20.9442 12.87 21.0003 12.8809 21.057 12.8807C21.1708 12.8803 21.2799 12.8349 21.3604 12.7544C21.441 12.6739 21.4864 12.5648 21.4867 12.4509V10.7255C21.487 10.6688 21.476 10.6127 21.4545 10.5602C21.4331 10.5078 21.4015 10.4601 21.3616 10.4199C21.3216 10.3797 21.2742 10.3478 21.2219 10.3259C21.1697 10.304 21.1136 10.2927 21.057 10.2925Z" fill="white"/>
<path d="M20.1942 11.1553C20.1373 11.155 20.0809 11.1661 20.0282 11.1878C19.9756 11.2094 19.9278 11.2413 19.8875 11.2816C19.8473 11.3218 19.8154 11.3696 19.7937 11.4223C19.7721 11.4749 19.761 11.5313 19.7612 11.5882C19.7614 11.6449 19.7728 11.7009 19.7946 11.7532C19.8165 11.8055 19.8485 11.8529 19.8887 11.8928C19.9289 11.9327 19.9766 11.9643 20.029 11.9858C20.0814 12.0073 20.1375 12.0182 20.1942 12.018H21.9197C22.0335 12.0176 22.1426 11.9722 22.2231 11.8917C22.3036 11.8112 22.349 11.7021 22.3494 11.5882C22.3497 11.5316 22.3387 11.4754 22.3172 11.423C22.2958 11.3706 22.2641 11.3229 22.2242 11.2827C22.1843 11.2425 22.1369 11.2105 22.0846 11.1887C22.0324 11.1668 21.9763 11.1555 21.9197 11.1553H20.1942Z" fill="white"/>
</svg>
