<svg width="14" height="13" viewBox="0 0 14 13" fill="none" xmlns="http://www.w3.org/2000/svg">
<path d="M6.44986 1.02682C6.61858 0.524394 7.38142 0.524396 7.55014 1.02681L8.3619 3.44409C8.61858 4.20843 9.34537 4.70705 10.1444 4.70705H12.7713C13.3752 4.70705 13.5187 5.39031 13.1183 5.6718L10.9931 7.16575C10.3341 7.62903 10.0471 8.46235 10.3052 9.23105L11.117 11.6483C11.1963 11.8844 11.1103 12.0982 10.9139 12.2362C10.7149 12.3761 10.4514 12.3991 10.2198 12.2363L8.09464 10.7423C7.44055 10.2825 6.55945 10.2825 5.90536 10.7423L3.78016 12.2362C3.54857 12.3991 3.28512 12.3761 3.08612 12.2362C2.88968 12.0982 2.80371 11.8844 2.883 11.6483L3.69475 9.23105C3.95289 8.46235 3.6659 7.62903 3.00688 7.16575L0.881678 5.6718C0.481253 5.39031 0.624772 4.70705 1.2287 4.70705H3.85559C4.65463 4.70705 5.38142 4.20843 5.6381 3.44409L6.44986 1.02682Z" stroke="white" stroke-width="1.3"/>
</svg>
