<svg width="13" height="12" viewBox="0 0 13 12" fill="none" xmlns="http://www.w3.org/2000/svg">
<path d="M9.41177 9.75C9.75499 9.75 10.0842 9.8817 10.3268 10.1161C10.5695 10.3505 10.7059 10.6685 10.7059 11C10.7059 10.6685 10.8422 10.3505 11.0849 10.1161C11.3276 9.8817 11.6568 9.75 12 9.75C11.6568 9.75 11.3276 9.6183 11.0849 9.38388C10.8422 9.14946 10.7059 8.83152 10.7059 8.5C10.7059 8.83152 10.5695 9.14946 10.3268 9.38388C10.0842 9.6183 9.75499 9.75 9.41177 9.75ZM9.41177 2.25C9.75499 2.25 10.0842 2.3817 10.3268 2.61612C10.5695 2.85054 10.7059 3.16848 10.7059 3.5C10.7059 3.16848 10.8422 2.85054 11.0849 2.61612C11.3276 2.3817 11.6568 2.25 12 2.25C11.6568 2.25 11.3276 2.1183 11.0849 1.88388C10.8422 1.64946 10.7059 1.33152 10.7059 1C10.7059 1.33152 10.5695 1.64946 10.3268 1.88388C10.0842 2.1183 9.75499 2.25 9.41177 2.25ZM4.88235 9.75C4.88235 8.75544 5.29139 7.80161 6.01947 7.09835C6.74755 6.39509 7.73504 6 8.76471 6C7.73504 6 6.74755 5.60491 6.01947 4.90165C5.29139 4.19839 4.88235 3.24456 4.88235 2.25C4.88235 3.24456 4.47332 4.19839 3.74524 4.90165C3.01716 5.60491 2.02966 6 1 6C2.02966 6 3.01716 6.39509 3.74524 7.09835C4.47332 7.80161 4.88235 8.75544 4.88235 9.75Z" stroke="white" stroke-width="0.5" stroke-linecap="round" stroke-linejoin="round"/>
</svg>
